<?xml version="1.0" encoding="UTF-8" standalone="no"?>
<!DOCTYPE svg PUBLIC "-//W3C//DTD SVG 1.0//EN" "http://www.w3.org/TR/2001/PR-SVG-20010719/DTD/svg10.dtd">
<svg width="41cm" height="36cm" viewBox="204 302 811 717" xmlns="http://www.w3.org/2000/svg" xmlns:xlink="http://www.w3.org/1999/xlink">
  <defs/>
  <g id="Arrière-plan">
    <g>
      <path style="fill: #c9c9b6; fill-opacity: 1; stroke: none" fill-rule="evenodd" d="M 700.35 326.922 L 734.346,326.922 L 720.052,341.264 L 686.057,341.264 L 700.35,326.922z"/>
      <path style="fill: none; stroke-opacity: 1; stroke-width: 0.02; stroke: #494936" d="M 700.35 326.922 L 734.346,326.922 L 720.052,341.264 L 686.057,341.264 L 700.35,326.922"/>
      <path style="fill: none; stroke-opacity: 1; stroke-width: 0.02; stroke: #dbdbce" d="M 701.655 338.841 L 701.655,338.918 L 701.669,338.98 L 701.69,339.064 L 701.718,339.147 L 701.76,339.209 L 701.808,339.286 L 701.871,339.355 L 701.933,339.418 L 701.996,339.494 L 702.079,339.57 L 702.162,339.633 L 702.253,339.688 L 702.357,339.744 L 702.454,339.806 L 702.579,339.855 L 702.69,339.917 L 702.815,339.966 L 702.954,340.015 L 703.092,340.056 L 703.224,340.098 L 703.37,340.14 L 703.516,340.181 L 703.669,340.202 L 703.835,340.23 L 703.995,340.244 L 704.162,340.272 L 704.314,340.292 L 704.488,340.313 L 704.661,340.32 L 704.828,340.327 L 704.995,340.327"/>
      <path style="fill: none; stroke-opacity: 1; stroke-width: 0.02; stroke: #dbdbce" d="M 704.627 340.327 L 704.793,340.327 L 704.953,340.32 L 705.113,340.306 L 705.279,340.285 L 705.446,340.272 L 705.599,340.244 L 705.751,340.23 L 705.911,340.195 L 706.057,340.16 L 706.209,340.119 L 706.341,340.077 L 706.48,340.035 L 706.612,339.987 L 706.737,339.938 L 706.848,339.89 L 706.966,339.834 L 707.077,339.772 L 707.174,339.716 L 707.272,339.647 L 707.355,339.577 L 707.431,339.508 L 707.494,339.445 L 707.563,339.369 L 707.619,339.293 L 707.66,339.23 L 707.709,339.154 L 707.73,339.064 L 707.751,338.987 L 707.771,338.918 L 707.778,338.841"/>
      <path style="fill: none; stroke-opacity: 1; stroke-width: 0.02; stroke: #dbdbce" d="M 705.363 336.058 L 705.189,336.058 L 705.022,336.065 L 704.849,336.065 L 704.696,336.079 L 704.529,336.099 L 704.363,336.113 L 704.203,336.127 L 704.037,336.162 L 703.891,336.19 L 703.745,336.21 L 703.599,336.245 L 703.453,336.287 L 703.322,336.321 L 703.197,336.363 L 703.072,336.419 L 702.933,336.46 L 702.836,336.509 L 702.725,336.551 L 702.62,336.606 L 702.537,336.669 L 702.447,336.724 L 702.371,336.773 L 702.294,336.835 L 702.239,336.898 L 702.183,336.967 L 702.128,337.03 L 702.1,337.085 L 702.065,337.155 L 702.044,337.21 L 702.037,337.286 L 702.03,337.342"/>
      <path style="fill: none; stroke-opacity: 1; stroke-width: 0.02; stroke: #dbdbce" d="M 708.139 337.342 L 708.139,337.279 L 708.132,337.21 L 708.105,337.148 L 708.077,337.071 L 708.042,337.016 L 707.987,336.939 L 707.931,336.884 L 707.876,336.814 L 707.792,336.766 L 707.73,336.696 L 707.646,336.641 L 707.535,336.592 L 707.445,336.523 L 707.341,336.488 L 707.23,336.433 L 707.105,336.377 L 706.973,336.335 L 706.841,336.294 L 706.709,336.259 L 706.57,336.231 L 706.425,336.197 L 706.272,336.162 L 706.126,336.141 L 705.973,336.113 L 705.821,336.099 L 705.661,336.079 L 705.494,336.065 L 705.321,336.065 L 705.154,336.058 L 704.995,336.058"/>
      <path style="fill: #a5a585; fill-opacity: 1; stroke: none" fill-rule="evenodd" d="M 686.057 342.75 L 720.052,342.75 L 720.052,341.264 L 686.057,341.264 L 686.057,342.75z"/>
      <path style="fill: none; stroke-opacity: 1; stroke-width: 0.02; stroke: #494936" d="M 686.057 342.75 L 720.052,342.75 L 720.052,341.264 L 686.057,341.264 L 686.057,342.75"/>
      <path style="fill: #a5a585; fill-opacity: 1; stroke: none" fill-rule="evenodd" d="M 700.35 326.922 L 734.346,326.922 L 734.346,303.666 L 700.35,303.666 L 700.35,326.922z"/>
      <path style="fill: none; stroke-opacity: 1; stroke-width: 0.02; stroke: #494936" d="M 700.35 326.922 L 734.346,326.922 L 734.346,303.666 L 700.35,303.666 L 700.35,326.922"/>
      <path style="fill: #7a7a5a; fill-opacity: 1; stroke: none" fill-rule="evenodd" d="M 735.276 326.006 L 735.276,302.75 L 734.346,303.666 L 734.346,326.922 L 735.276,326.006z"/>
      <path style="fill: none; stroke-opacity: 1; stroke-width: 0.02; stroke: #494936" d="M 735.276 326.006 L 735.276,302.75 L 734.346,303.666 L 734.346,326.922 L 735.276,326.006"/>
      <path style="fill: #ffffff; fill-opacity: 1; stroke: none" fill-rule="evenodd" d="M 702.03 325.443 L 732.679,325.443 L 732.679,305.534 L 702.03,305.534 L 702.03,325.443z"/>
      <path style="fill: none; stroke-opacity: 1; stroke-width: 0.02; stroke: #494936" d="M 702.03 325.443 L 732.679,325.443 L 732.679,305.534 L 702.03,305.534 L 702.03,325.443"/>
      <path style="fill: #93936c; fill-opacity: 1; stroke: none" fill-rule="evenodd" d="M 702.03 328.047 L 730.625,328.047 L 723.197,335.495 L 694.602,335.495 L 702.03,328.047z"/>
      <path style="fill: none; stroke-opacity: 1; stroke-width: 0.02; stroke: #494936" d="M 702.03 328.047 L 730.625,328.047 L 723.197,335.495 L 694.602,335.495 L 702.03,328.047"/>
      <path style="fill: #7a7a5a; fill-opacity: 1; stroke: none" fill-rule="evenodd" d="M 706.48 338.369 L 706.48,338.328 L 706.473,338.286 L 706.466,338.244 L 706.445,338.196 L 706.439,338.154 L 706.411,338.119 L 706.397,338.078 L 706.362,338.05 L 706.327,338.008 L 706.307,337.967 L 706.272,337.932 L 706.23,337.897 L 706.189,337.856 L 706.14,337.821 L 706.098,337.8 L 706.05,337.765 L 705.994,337.738 L 705.932,337.717 L 705.883,337.682 L 705.821,337.668 L 705.758,337.64 L 705.703,337.627 L 705.633,337.606 L 705.571,337.592 L 705.494,337.578 L 705.432,337.557 L 705.363,337.55 L 705.3,337.55 L 705.231,337.543 L 705.147,337.543 L 705.092,337.543 L 705.092,337.543 L 705.015,337.543 L 704.939,337.543 L 704.877,337.55 L 704.807,337.55 L 704.745,337.557 L 704.668,337.578 L 704.606,337.592 L 704.536,337.606 L 704.474,337.627 L 704.411,337.64 L 704.356,337.668 L 704.287,337.682 L 704.238,337.717 L 704.182,337.738 L 704.127,337.765 L 704.078,337.8 L 704.037,337.821 L 703.988,337.856 L 703.946,337.897 L 703.912,337.932 L 703.863,337.967 L 703.842,338.008 L 703.801,338.05 L 703.78,338.078 L 703.759,338.119 L 703.738,338.154 L 703.724,338.196 L 703.717,338.244 L 703.703,338.286 L 703.69,338.328 L 703.69,338.369 L 703.69,338.369 L 703.69,338.418 L 703.703,338.46 L 703.717,338.501 L 703.724,338.543 L 703.738,338.585 L 703.759,338.619 L 703.78,338.668 L 703.801,338.703 L 703.842,338.744 L 703.863,338.772 L 703.912,338.814 L 703.946,338.848 L 703.988,338.89 L 704.037,338.918 L 704.078,338.946 L 704.127,338.98 L 704.182,339.008 L 704.238,339.029 L 704.287,339.064 L 704.356,339.077 L 704.411,339.105 L 704.474,339.119 L 704.536,339.14 L 704.606,339.154 L 704.668,339.168 L 704.745,339.182 L 704.807,339.195 L 704.877,339.195 L 704.939,339.195 L 705.015,339.202 L 705.092,339.202 L 705.092,339.202 L 705.147,339.202 L 705.231,339.195 L 705.3,339.195 L 705.363,339.195 L 705.432,339.182 L 705.494,339.168 L 705.571,339.154 L 705.633,339.14 L 705.703,339.119 L 705.758,339.105 L 705.821,339.077 L 705.883,339.064 L 705.932,339.029 L 705.994,339.008 L 706.05,338.98 L 706.098,338.946 L 706.14,338.918 L 706.189,338.89 L 706.23,338.848 L 706.272,338.814 L 706.307,338.772 L 706.327,338.744 L 706.362,338.703 L 706.397,338.668 L 706.411,338.619 L 706.439,338.585 L 706.445,338.543 L 706.466,338.501 L 706.473,338.46 L 706.48,338.418 L 706.48,338.369z"/>
      <path style="fill: none; stroke-opacity: 1; stroke-width: 0.02; stroke: #dbdbce" d="M 706.3 338.286 L 706.3,338.244 L 706.293,338.203 L 706.293,338.168 L 706.272,338.14 L 706.258,338.085 L 706.251,338.064 L 706.216,338.022 L 706.189,337.981 L 706.168,337.953 L 706.14,337.925 L 706.098,337.897 L 706.064,337.849 L 706.022,337.821 L 705.98,337.8 L 705.946,337.765 L 705.89,337.738 L 705.848,337.724 L 705.8,337.689 L 705.751,337.675 L 705.689,337.647 L 705.633,337.634 L 705.571,337.62 L 705.515,337.599 L 705.453,337.585 L 705.39,337.578 L 705.321,337.557 L 705.265,337.55 L 705.189,337.543 L 705.133,337.543 L 705.064,337.543 L 705.002,337.543 L 705.002,337.543 L 704.932,337.543 L 704.87,337.543 L 704.8,337.543 L 704.745,337.55 L 704.675,337.557 L 704.62,337.578 L 704.543,337.585 L 704.488,337.599 L 704.439,337.62 L 704.37,337.634 L 704.314,337.647 L 704.245,337.675 L 704.21,337.689 L 704.148,337.724 L 704.106,337.738 L 704.057,337.765 L 704.016,337.8 L 703.974,337.821 L 703.932,337.849 L 703.898,337.897 L 703.863,337.925 L 703.835,337.953 L 703.801,337.981 L 703.787,338.022 L 703.759,338.064 L 703.745,338.085 L 703.731,338.14 L 703.717,338.168 L 703.71,338.203 L 703.703,338.244 L 703.703,338.286 L 703.703,338.286 L 703.703,338.321 L 703.71,338.362 L 703.717,338.404 L 703.731,338.425 L 703.745,338.467 L 703.759,338.508 L 703.787,338.543 L 703.801,338.578 L 703.835,338.619 L 703.863,338.64 L 703.898,338.675 L 703.932,338.71 L 703.974,338.744 L 704.016,338.765 L 704.057,338.8 L 704.106,338.821 L 704.148,338.848 L 704.21,338.876 L 704.245,338.89 L 704.314,338.918 L 704.37,338.939 L 704.439,338.946 L 704.488,338.966 L 704.543,338.98 L 704.62,338.987 L 704.675,339.008 L 704.745,339.022 L 704.8,339.022 L 704.87,339.022 L 704.932,339.022 L 705.002,339.022 L 705.002,339.022 L 705.064,339.022 L 705.133,339.022 L 705.189,339.022 L 705.265,339.022 L 705.321,339.008 L 705.39,338.987 L 705.453,338.98 L 705.515,338.966 L 705.571,338.946 L 705.633,338.939 L 705.689,338.918 L 705.751,338.89 L 705.8,338.876 L 705.848,338.848 L 705.89,338.821 L 705.946,338.8 L 705.98,338.765 L 706.022,338.744 L 706.064,338.71 L 706.098,338.675 L 706.14,338.64 L 706.168,338.619 L 706.189,338.578 L 706.216,338.543 L 706.251,338.508 L 706.258,338.467 L 706.272,338.425 L 706.293,338.404 L 706.293,338.362 L 706.3,338.321 L 706.3,338.286"/>
      <path style="fill: none; stroke-opacity: 1; stroke-width: 0.02; stroke: #626248" d="M 701.85 339.022 L 701.85,339.105 L 701.864,339.168 L 701.892,339.244 L 701.912,339.327 L 701.954,339.397 L 701.996,339.459 L 702.058,339.536 L 702.121,339.612 L 702.19,339.674 L 702.259,339.744 L 702.35,339.806 L 702.433,339.876 L 702.544,339.931 L 702.648,339.987 L 702.759,340.035 L 702.877,340.098 L 703.009,340.147 L 703.127,340.195 L 703.28,340.237 L 703.419,340.278 L 703.565,340.327 L 703.71,340.362 L 703.863,340.383 L 704.016,340.41 L 704.182,340.438 L 704.342,340.452 L 704.502,340.48 L 704.668,340.494 L 704.842,340.501 L 705.008,340.501 L 705.175,340.501"/>
      <path style="fill: none; stroke-opacity: 1; stroke-width: 0.02; stroke: #626248" d="M 704.8 340.501 L 704.974,340.501 L 705.133,340.501 L 705.307,340.487 L 705.46,340.466 L 705.619,340.452 L 705.786,340.438 L 705.932,340.41 L 706.091,340.376 L 706.23,340.341 L 706.383,340.313 L 706.529,340.272 L 706.661,340.23 L 706.793,340.181 L 706.918,340.119 L 707.043,340.07 L 707.147,340.015 L 707.258,339.959 L 707.355,339.89 L 707.445,339.834 L 707.535,339.758 L 707.612,339.702 L 707.688,339.633 L 707.751,339.55 L 707.792,339.473 L 707.855,339.411 L 707.882,339.327 L 707.917,339.251 L 707.945,339.168 L 707.945,339.105 L 707.959,339.022"/>
      <path style="fill: none; stroke-opacity: 1; stroke-width: 0.02; stroke: #626248" d="M 705.543 336.238 L 705.383,336.238 L 705.217,336.245 L 705.05,336.245 L 704.884,336.259 L 704.71,336.28 L 704.543,336.287 L 704.398,336.315 L 704.231,336.335 L 704.078,336.377 L 703.932,336.391 L 703.787,336.433 L 703.648,336.46 L 703.509,336.509 L 703.384,336.551 L 703.259,336.592 L 703.127,336.634 L 703.023,336.682 L 702.912,336.731 L 702.815,336.794 L 702.725,336.849 L 702.641,336.898 L 702.558,336.967 L 702.475,337.016 L 702.426,337.071 L 702.371,337.148 L 702.322,337.203 L 702.28,337.273 L 702.253,337.328 L 702.232,337.391 L 702.225,337.467 L 702.218,337.536"/>
      <path style="fill: none; stroke-opacity: 1; stroke-width: 0.02; stroke: #626248" d="M 708.334 337.536 L 708.32,337.46 L 708.313,337.391 L 708.299,337.328 L 708.264,337.259 L 708.223,337.196 L 708.174,337.127 L 708.119,337.071 L 708.056,337.009 L 707.987,336.939 L 707.903,336.884 L 707.82,336.821 L 707.73,336.766 L 707.619,336.717 L 707.522,336.669 L 707.403,336.62 L 707.292,336.564 L 707.167,336.523 L 707.036,336.488 L 706.89,336.446 L 706.751,336.419 L 706.612,336.377 L 706.466,336.349 L 706.314,336.321 L 706.147,336.294 L 706.001,336.28 L 705.842,336.259 L 705.675,336.245 L 705.501,336.245 L 705.349,336.238 L 705.175,336.238"/>
      <path style="fill: #7a7a5a; fill-opacity: 1; stroke: none" fill-rule="evenodd" d="M 734.346 328.227 L 720.052,342.569 L 720.052,341.264 L 734.346,326.922 L 734.346,328.227z"/>
      <path style="fill: none; stroke-opacity: 1; stroke-width: 0.02; stroke: #494936" d="M 734.346 328.227 L 720.052,342.569 L 720.052,341.264 L 734.346,326.922 L 734.346,328.227"/>
      <path style="fill: #7a7a5a; fill-opacity: 1; stroke: none" fill-rule="evenodd" d="M 729.521 325.825 L 729.521,326.179 L 732.305,326.179 L 732.305,325.825 L 729.521,325.825z"/>
      <path style="fill: none; stroke-opacity: 1; stroke-width: 0.02; stroke: #494936" d="M 729.521 325.825 L 729.521,326.179 L 732.305,326.179 L 732.305,325.825 L 729.521,325.825"/>
      <path style="fill: none; stroke-opacity: 1; stroke-width: 0.02; stroke: #000000" d="M 728.757 329.907 L 700.35,329.907"/>
      <path style="fill: none; stroke-opacity: 1; stroke-width: 0.02; stroke: #000000" d="M 726.911 331.774 L 698.504,331.774"/>
      <path style="fill: none; stroke-opacity: 1; stroke-width: 0.02; stroke: #000000" d="M 725.057 333.635 L 696.643,333.635"/>
      <path style="fill: #c9c9b6; fill-opacity: 1; stroke: none" fill-rule="evenodd" d="M 701.281 302.75 L 735.276,302.75 L 734.346,303.666 L 700.35,303.666 L 701.281,302.75z"/>
      <path style="fill: none; stroke-opacity: 1; stroke-width: 0.02; stroke: #494936" d="M 701.281 302.75 L 735.276,302.75 L 734.346,303.666 L 700.35,303.666 L 701.281,302.75"/>
    </g>
    <text font-size="12.8" style="fill: #000000; fill-opacity: 1; stroke: none;text-anchor:start;font-family:sans-serif;font-style:normal;font-weight:normal" x="755.667" y="321.75">
      <tspan x="755.667" y="321.75">Utilisateur final</tspan>
    </text>
    <g>
      <path style="fill: #000000; fill-opacity: 1; stroke: none" fill-rule="evenodd" d="M 719.218 377.75 C 715.247,377.75 711.742,380.044 709.627,383.472 C 709.464,383.469 709.3,383.472 709.136,383.472 C 702.163,383.472 696.095,386.109 692.788,390.011 C 692.78,390.021 692.741,390.002 692.733,390.011 C 687.431,390.908 683.469,394.685 683.469,399.221 C 683.469,404.423 688.728,408.649 695.185,408.649 C 696.659,408.649 698.028,408.396 699.327,407.995 C 699.617,408.118 699.899,408.265 700.199,408.377 C 700.235,413.553 705.481,417.75 711.916,417.75 C 718.373,417.75 723.578,413.524 723.578,408.322 C 723.578,407.387 723.457,406.45 723.142,405.597 C 723.827,405.076 724.435,404.555 724.995,403.962 C 727.139,407 730.451,408.976 734.15,408.976 C 740.607,408.976 745.867,403.043 745.867,395.733 C 745.867,388.424 740.607,382.491 734.15,382.491 C 732.3,382.491 730.583,382.987 729.027,383.853 C 726.942,380.214 723.333,377.75 719.218,377.75z"/>
      <path style="fill: #cccccc; fill-opacity: 1; stroke: none" fill-rule="evenodd" d="M 717.273 380.088 C 713.764,380.088 712.144,382.731 710.275,385.759 C 710.131,385.757 709.986,385.771 709.841,385.759 C 703.303,385.232 695.914,387.185 694.164,392.276 C 694.161,392.286 694.738,393.868 694.116,392.276 C 689.2,392.143 685.603,394.73 685.684,399.061 C 685.769,403.657 689.962,406.53 695.668,406.53 C 696.97,406.53 698.918,406.43 700.066,406.076 C 700.322,406.184 700.571,406.314 700.837,406.413 C 700.868,410.987 705.135,415.434 710.821,415.434 C 716.527,415.434 721.618,412.93 721.618,408.333 C 721.618,407.507 721.881,405.695 721.602,404.941 C 722.208,404.48 725.206,402.544 725.7,402.02 C 727.595,404.704 730.891,407.065 734.16,407.065 C 739.865,407.065 743.898,402.315 743.898,395.856 C 743.898,389.397 739.25,384.154 733.544,384.154 C 731.91,384.154 729.531,384.962 728.156,385.727 C 726.483,381.155 721.068,378.82 717.273,380.088z"/>
      <path style="fill: #ececec; fill-opacity: 1; stroke: none" fill-rule="evenodd" d="M 712.613 389.451 C 710.701,385.531 694.57,385.715 696.7,393.261 C 679.862,390.021 684.854,411.791 701.575,404.075 C 701.607,408.649 705.381,414.818 711.067,414.818 C 718.303,414.924 720.792,409.36 720.494,402.603 C 722.677,404.089 725.307,400.369 726.07,399.805 C 732.269,410.865 742.519,406.319 743.898,395.856 C 743.444,386.766 733.7,383.014 725.818,386.466 C 727.41,379.48 711.125,376.687 712.613,389.451z"/>
      <path style="fill: #e5e5e5; fill-opacity: 1; stroke: none" fill-rule="evenodd" d="M 713.228 392.651 C 711.317,388.731 698.016,386.085 700.146,393.63 C 696.405,396.318 690.276,392.45 689.995,397.357 C 689.567,404.8 699.8,402.204 698.79,397.707 C 698.669,397.172 699.836,398.28 700.255,398.87 C 701.093,400.051 703.267,400.726 703.188,402.224 C 702.912,407.437 717.272,410.243 713.614,398.81 C 713.371,398.049 715.172,399.281 715.98,399.583 C 719.832,401.022 725.609,397.412 724.782,392.836 C 724.699,392.375 725.63,393.097 725.915,393.989 C 730.182,407.372 739.833,405.719 742.175,396.102 C 741.721,387.012 731.238,385.229 723.357,388.681 C 719.935,384.202 716.542,385.042 713.228,392.651z"/>
      <path style="fill: #000000; fill-opacity: 1; stroke: none" fill-rule="evenodd" d="M 692.264 392.04 C 695.874,392.265 696.572,394.675 698.417,396.224 C 697.571,393.542 696.064,391.522 693.741,390.317 L 692.264,392.04z"/>
      <path style="fill: #000000; fill-opacity: 1; stroke: none" fill-rule="evenodd" d="M 700.509 408.53 C 700.735,404.92 703.144,404.222 704.693,402.377 C 702.012,403.223 699.992,404.73 698.786,407.053 L 700.509,408.53z"/>
      <path style="fill: #000000; fill-opacity: 1; stroke: none" fill-rule="evenodd" d="M 726.413 404.346 C 726.639,400.736 729.048,400.038 730.597,398.193 C 727.916,399.039 725.895,400.546 724.69,402.869 L 726.413,404.346z"/>
      <path style="fill: #000000; fill-opacity: 1; stroke: none" fill-rule="evenodd" d="M 721.614 407.484 C 721.388,403.874 718.979,403.176 717.43,401.331 C 720.111,402.177 722.132,403.684 723.337,406.007 L 721.614,407.484z"/>
      <path style="fill: #b3b3b3; fill-opacity: 1; stroke: none" fill-rule="evenodd" d="M 720.169 391.685 L 720.169,393.284 L 721.563,393.284 C 721.849,393.284 722.072,393.239 722.233,393.181 C 722.395,393.121 722.511,393 722.594,392.871 C 722.678,392.74 722.698,392.611 722.698,392.458 C 722.698,392.235 722.603,392.087 722.44,391.942 C 722.278,391.798 722.016,391.685 721.666,391.685 L 720.169,391.685z"/>
      <path style="fill: #b3b3b3; fill-opacity: 1; stroke: none" fill-rule="evenodd" d="M 704.588 391.169 L 704.588,395.915 L 705.207,395.915 L 705.207,391.169 L 704.588,391.169z"/>
      <path style="fill: #b3b3b3; fill-opacity: 1; stroke: none" fill-rule="evenodd" d="M 706.29 391.169 L 706.29,395.915 L 706.909,395.915 L 706.909,392.2 L 709.386,395.915 L 710.005,395.915 L 710.005,391.169 L 709.438,391.169 L 709.438,394.883 L 706.961,391.169 L 706.29,391.169z"/>
      <path style="fill: #b3b3b3; fill-opacity: 1; stroke: none" fill-rule="evenodd" d="M 710.727 391.169 L 710.727,391.736 L 712.275,391.736 L 712.275,395.915 L 712.895,395.915 L 712.895,391.736 L 714.494,391.736 L 714.494,391.169 L 710.727,391.169z"/>
      <path style="fill: #b3b3b3; fill-opacity: 1; stroke: none" fill-rule="evenodd" d="M 715.165 391.169 L 715.165,395.915 L 718.673,395.915 L 718.673,395.348 L 715.784,395.348 L 715.784,393.748 L 718.415,393.748 L 718.415,393.181 L 715.784,393.181 L 715.784,391.736 L 718.57,391.736 L 718.57,391.169 L 715.165,391.169z"/>
      <path style="fill: #b3b3b3; fill-opacity: 1; stroke: none" fill-rule="evenodd" d="M 719.55 391.169 L 719.55,395.915 L 720.169,395.915 L 720.169,393.8 L 720.943,393.8 C 721.105,393.8 721.182,393.836 721.253,393.852 C 721.35,393.875 721.47,393.895 721.563,393.955 C 721.657,394.015 721.754,394.114 721.872,394.264 C 721.99,394.415 722.154,394.651 722.337,394.935 L 722.956,395.915 L 723.73,395.915 L 722.904,394.625 C 722.741,394.374 722.571,394.174 722.388,394.006 C 722.302,393.929 722.192,393.828 722.027,393.748 C 722.481,393.686 722.79,393.566 723.007,393.336 C 723.224,393.106 723.368,392.794 723.368,392.458 C 723.368,392.198 723.293,391.951 723.162,391.736 C 723.031,391.521 722.865,391.407 722.646,391.323 C 722.427,391.237 722.087,391.169 721.666,391.169 L 719.55,391.169z"/>
      <path style="fill: #b3b3b3; fill-opacity: 1; stroke: none" fill-rule="evenodd" d="M 724.349 391.169 L 724.349,395.915 L 724.916,395.915 L 724.916,392.2 L 727.393,395.915 L 728.064,395.915 L 728.064,391.169 L 727.444,391.169 L 727.444,394.883 L 724.968,391.169 L 724.349,391.169z"/>
      <path style="fill: #b3b3b3; fill-opacity: 1; stroke: none" fill-rule="evenodd" d="M 729.096 391.169 L 729.096,395.915 L 732.656,395.915 L 732.656,395.348 L 729.766,395.348 L 729.766,393.748 L 732.346,393.748 L 732.346,393.181 L 729.766,393.181 L 729.766,391.736 L 732.552,391.736 L 732.552,391.169 L 729.096,391.169z"/>
      <path style="fill: #b3b3b3; fill-opacity: 1; stroke: none" fill-rule="evenodd" d="M 733.172 391.169 L 733.172,391.736 L 734.719,391.736 L 734.719,395.915 L 735.339,395.915 L 735.339,391.736 L 736.886,391.736 L 736.886,391.169 L 733.172,391.169z"/>
      <path style="fill: #e5e5e5; fill-opacity: 1; stroke: none" fill-rule="evenodd" d="M 720.169 391.685 L 721.666,391.685 C 722.016,391.685 722.278,391.798 722.44,391.942 C 722.603,392.087 722.698,392.235 722.698,392.458 C 722.698,392.611 722.678,392.74 722.594,392.871 C 722.511,393 722.395,393.121 722.233,393.181 C 722.072,393.239 721.849,393.284 721.563,393.284 L 720.169,393.284 L 720.169,391.685z"/>
    </g>
    <g>
      <path style="fill: #a5a585; fill-opacity: 1; stroke: none" fill-rule="evenodd" d="M 612.91 698.512 L 612.871,698.014 L 612.762,697.524 L 612.576,697.034 L 612.319,696.551 L 612,696.069 L 611.603,695.594 L 611.136,695.127 L 610.599,694.668 L 609.993,694.217 L 609.323,693.789 L 608.592,693.361 L 607.806,692.941 L 606.943,692.544 L 606.032,692.163 L 605.067,691.797 L 604.04,691.447 L 602.974,691.12 L 601.854,690.809 L 600.695,690.521 L 599.481,690.249 L 598.244,689.992 L 596.96,689.766 L 595.645,689.549 L 594.315,689.37 L 592.945,689.214 L 591.553,689.082 L 590.152,688.965 L 588.728,688.887 L 587.297,688.817 L 585.857,688.771 L 584.418,688.771 L 584.418,688.771 L 582.971,688.771 L 581.531,688.817 L 580.1,688.887 L 578.676,688.965 L 577.275,689.082 L 575.882,689.214 L 574.521,689.37 L 573.183,689.549 L 571.868,689.766 L 570.584,689.992 L 569.347,690.249 L 568.141,690.521 L 566.981,690.809 L 565.861,691.12 L 564.787,691.447 L 563.76,691.797 L 562.803,692.163 L 561.885,692.544 L 561.029,692.941 L 560.236,693.361 L 559.504,693.789 L 558.835,694.217 L 558.228,694.668 L 557.691,695.127 L 557.225,695.594 L 556.828,696.069 L 556.509,696.551 L 556.252,697.034 L 556.065,697.524 L 555.964,698.014 L 555.925,698.512 L 555.925,698.512 L 555.964,699.01 L 556.065,699.492 L 556.252,699.99 L 556.509,700.473 L 556.828,700.955 L 557.225,701.43 L 557.691,701.896 L 558.228,702.355 L 558.835,702.799 L 559.504,703.235 L 560.236,703.663 L 561.029,704.083 L 561.885,704.48 L 562.803,704.861 L 563.76,705.226 L 564.787,705.577 L 565.861,705.903 L 566.981,706.215 L 568.141,706.503 L 569.347,706.775 L 570.584,707.032 L 571.868,707.257 L 573.183,707.467 L 574.521,707.654 L 575.882,707.81 L 577.275,707.942 L 578.676,708.051 L 580.1,708.136 L 581.531,708.199 L 582.971,708.245 L 584.418,708.253 L 584.418,708.253 L 585.857,708.245 L 587.297,708.199 L 588.728,708.136 L 590.152,708.051 L 591.553,707.942 L 592.945,707.81 L 594.315,707.654 L 595.645,707.467 L 596.96,707.257 L 598.244,707.032 L 599.481,706.775 L 600.695,706.503 L 601.854,706.215 L 602.974,705.903 L 604.04,705.577 L 605.067,705.226 L 606.032,704.861 L 606.943,704.48 L 607.806,704.083 L 608.592,703.663 L 609.323,703.235 L 609.993,702.799 L 610.599,702.355 L 611.136,701.896 L 611.603,701.43 L 612,700.955 L 612.319,700.473 L 612.576,699.99 L 612.762,699.492 L 612.871,699.01 L 612.91,698.512z"/>
      <path style="fill: none; stroke-opacity: 1; stroke-width: 0.02; stroke: #494936" d="M 612.576 698.356 L 612.537,697.858 L 612.436,697.384 L 612.257,696.901 L 612.008,696.427 L 611.673,695.944 L 611.269,695.485 L 610.825,695.018 L 610.28,694.583 L 609.681,694.139 L 609.02,693.703 L 608.289,693.291 L 607.503,692.879 L 606.655,692.49 L 605.76,692.101 L 604.78,691.751 L 603.76,691.408 L 602.694,691.081 L 601.589,690.778 L 600.438,690.498 L 599.24,690.226 L 597.995,689.984 L 596.727,689.759 L 595.419,689.549 L 594.097,689.37 L 592.743,689.214 L 591.35,689.09 L 589.958,688.965 L 588.541,688.895 L 587.125,688.833 L 585.678,688.794 L 584.247,688.771 L 584.247,688.771 L 582.815,688.794 L 581.383,688.833 L 579.952,688.895 L 578.551,688.965 L 577.151,689.09 L 575.766,689.214 L 574.404,689.37 L 573.074,689.549 L 571.774,689.759 L 570.506,689.984 L 569.261,690.226 L 568.063,690.498 L 566.919,690.778 L 565.799,691.081 L 564.725,691.408 L 563.714,691.751 L 562.749,692.101 L 561.854,692.49 L 560.998,692.879 L 560.205,693.291 L 559.489,693.703 L 558.827,694.139 L 558.213,694.583 L 557.684,695.018 L 557.225,695.485 L 556.828,695.944 L 556.501,696.427 L 556.244,696.901 L 556.065,697.384 L 555.964,697.858 L 555.925,698.356 L 555.925,698.356 L 555.964,698.839 L 556.065,699.313 L 556.244,699.803 L 556.501,700.278 L 556.828,700.753 L 557.225,701.219 L 557.684,701.679 L 558.213,702.122 L 558.827,702.558 L 559.489,703.001 L 560.205,703.421 L 560.998,703.818 L 561.854,704.215 L 562.749,704.596 L 563.714,704.954 L 564.725,705.297 L 565.799,705.616 L 566.919,705.927 L 568.063,706.207 L 569.261,706.479 L 570.506,706.728 L 571.774,706.946 L 573.074,707.148 L 574.404,707.327 L 575.766,707.483 L 577.151,707.615 L 578.551,707.732 L 579.952,707.81 L 581.383,707.872 L 582.815,707.911 L 584.247,707.926 L 584.247,707.926 L 585.678,707.911 L 587.125,707.872 L 588.541,707.81 L 589.958,707.732 L 591.35,707.615 L 592.743,707.483 L 594.097,707.327 L 595.419,707.148 L 596.727,706.946 L 597.995,706.728 L 599.24,706.479 L 600.438,706.207 L 601.589,705.927 L 602.694,705.616 L 603.76,705.297 L 604.78,704.954 L 605.76,704.596 L 606.655,704.215 L 607.503,703.818 L 608.289,703.421 L 609.02,703.001 L 609.681,702.558 L 610.28,702.122 L 610.825,701.679 L 611.269,701.219 L 611.673,700.753 L 612.008,700.278 L 612.257,699.803 L 612.436,699.313 L 612.537,698.839 L 612.576,698.356"/>
      <path style="fill: #a5a585; fill-opacity: 1; stroke: none" fill-rule="evenodd" d="M 555.925 678.166 L 555.925,698.683 L 612.576,698.683 L 612.576,678.166 L 555.925,678.166z"/>
      <path style="fill: #c9c9b6; fill-opacity: 1; stroke: none" fill-rule="evenodd" d="M 612.91 677.994 L 612.871,677.489 L 612.762,676.999 L 612.576,676.516 L 612.319,676.034 L 612,675.544 L 611.603,675.069 L 611.136,674.594 L 610.599,674.151 L 609.993,673.707 L 609.323,673.256 L 608.592,672.844 L 607.806,672.424 L 606.943,672.019 L 606.032,671.645 L 605.067,671.28 L 604.04,670.922 L 602.974,670.595 L 601.854,670.292 L 600.695,669.996 L 599.481,669.724 L 598.244,669.475 L 596.96,669.249 L 595.645,669.039 L 594.315,668.852 L 592.945,668.697 L 591.553,668.564 L 590.152,668.455 L 588.728,668.37 L 587.297,668.3 L 585.857,668.261 L 584.418,668.253 L 584.418,668.253 L 582.971,668.261 L 581.531,668.3 L 580.1,668.37 L 578.676,668.455 L 577.275,668.564 L 575.882,668.697 L 574.521,668.852 L 573.183,669.039 L 571.868,669.249 L 570.584,669.475 L 569.347,669.724 L 568.141,669.996 L 566.981,670.292 L 565.861,670.595 L 564.787,670.922 L 563.76,671.28 L 562.803,671.645 L 561.885,672.019 L 561.029,672.424 L 560.236,672.844 L 559.504,673.256 L 558.835,673.707 L 558.228,674.151 L 557.691,674.594 L 557.225,675.069 L 556.828,675.544 L 556.509,676.034 L 556.252,676.516 L 556.065,676.999 L 555.964,677.489 L 555.925,677.994 L 555.925,677.994 L 555.964,678.485 L 556.065,678.983 L 556.252,679.457 L 556.509,679.955 L 556.828,680.43 L 557.225,680.912 L 557.691,681.379 L 558.228,681.83 L 558.835,682.282 L 559.504,682.717 L 560.236,683.145 L 561.029,683.558 L 561.885,683.954 L 562.803,684.336 L 563.76,684.709 L 564.787,685.051 L 565.861,685.386 L 566.981,685.697 L 568.141,685.985 L 569.347,686.257 L 570.584,686.514 L 571.868,686.732 L 573.183,686.95 L 574.521,687.129 L 575.882,687.284 L 577.275,687.425 L 578.676,687.526 L 580.1,687.619 L 581.531,687.681 L 582.971,687.72 L 584.418,687.736 L 584.418,687.736 L 585.857,687.72 L 587.297,687.681 L 588.728,687.619 L 590.152,687.526 L 591.553,687.425 L 592.945,687.284 L 594.315,687.129 L 595.645,686.95 L 596.96,686.732 L 598.244,686.514 L 599.481,686.257 L 600.695,685.985 L 601.854,685.697 L 602.974,685.386 L 604.04,685.051 L 605.067,684.709 L 606.032,684.336 L 606.943,683.954 L 607.806,683.558 L 608.592,683.145 L 609.323,682.717 L 609.993,682.282 L 610.599,681.83 L 611.136,681.379 L 611.603,680.912 L 612,680.43 L 612.319,679.955 L 612.576,679.457 L 612.762,678.983 L 612.871,678.485 L 612.91,677.994z"/>
      <path style="fill: none; stroke-opacity: 1; stroke-width: 0.02; stroke: #494936" d="M 612.576 677.839 L 612.537,677.341 L 612.436,676.866 L 612.257,676.392 L 612.008,675.909 L 611.673,675.419 L 611.269,674.96 L 610.825,674.517 L 610.28,674.057 L 609.681,673.622 L 609.02,673.178 L 608.289,672.774 L 607.503,672.361 L 606.655,671.964 L 605.76,671.599 L 604.78,671.233 L 603.76,670.899 L 602.694,670.572 L 601.589,670.261 L 600.438,669.973 L 599.24,669.708 L 597.995,669.467 L 596.727,669.241 L 595.419,669.039 L 594.097,668.852 L 592.743,668.697 L 591.35,668.564 L 589.958,668.455 L 588.541,668.37 L 588.067,668.347 L 580.426,668.347 L 579.952,668.37 L 578.551,668.455 L 577.151,668.564 L 575.766,668.697 L 574.404,668.852 L 573.074,669.039 L 571.774,669.241 L 570.506,669.467 L 569.261,669.708 L 568.063,669.973 L 566.919,670.261 L 565.799,670.572 L 564.725,670.899 L 563.714,671.233 L 562.749,671.599 L 561.854,671.964 L 560.998,672.361 L 560.205,672.774 L 559.489,673.178 L 558.827,673.622 L 558.213,674.057 L 557.684,674.517 L 557.225,674.96 L 556.828,675.419 L 556.501,675.909 L 556.244,676.392 L 556.065,676.866 L 555.964,677.341 L 555.925,677.839 L 555.925,677.839 L 555.964,678.313 L 556.065,678.804 L 556.244,679.286 L 556.501,679.761 L 556.828,680.235 L 557.225,680.702 L 557.684,681.153 L 558.213,681.612 L 558.827,682.048 L 559.489,682.484 L 560.205,682.904 L 560.998,683.301 L 561.854,683.69 L 562.749,684.079 L 563.714,684.437 L 564.725,684.771 L 565.799,685.09 L 566.919,685.402 L 568.063,685.682 L 569.261,685.954 L 570.506,686.211 L 571.774,686.413 L 573.074,686.631 L 574.404,686.802 L 575.766,686.965 L 577.151,687.106 L 578.551,687.214 L 579.952,687.3 L 581.383,687.354 L 582.815,687.386 L 584.247,687.409 L 584.247,687.409 L 585.678,687.386 L 587.125,687.354 L 588.541,687.3 L 589.958,687.214 L 591.35,687.106 L 592.743,686.965 L 594.097,686.802 L 595.419,686.631 L 596.727,686.413 L 597.995,686.211 L 599.24,685.954 L 600.438,685.682 L 601.589,685.402 L 602.694,685.09 L 603.76,684.771 L 604.78,684.437 L 605.76,684.079 L 606.655,683.69 L 607.503,683.301 L 608.289,682.904 L 609.02,682.484 L 609.681,682.048 L 610.28,681.612 L 610.825,681.153 L 611.269,680.702 L 611.673,680.235 L 612.008,679.761 L 612.257,679.286 L 612.436,678.804 L 612.537,678.313 L 612.576,677.839"/>
      <path style="fill: none; stroke-opacity: 1; stroke-width: 0.02; stroke: #000000" d="M 555.925 677.839 L 555.925,698.341"/>
      <path style="fill: none; stroke-opacity: 1; stroke-width: 0.02; stroke: #000000" d="M 612.576 677.839 L 612.576,698.341"/>
    </g>
    <text font-size="12.8" style="fill: #000000; fill-opacity: 1; stroke: none;text-anchor:middle;font-family:sans-serif;font-style:normal;font-weight:normal" x="584.211" y="700.084">
      <tspan x="584.211" y="700.084">Volume</tspan>
      <tspan x="584.211" y="716.084">/app/private</tspan>
    </text>
    <g>
      <path style="fill: #a5a585; fill-opacity: 1; stroke: none" fill-rule="evenodd" d="M 613.086 783.422 L 613.047,782.924 L 612.938,782.434 L 612.752,781.944 L 612.495,781.461 L 612.176,780.979 L 611.779,780.504 L 611.312,780.037 L 610.775,779.578 L 610.169,779.127 L 609.499,778.699 L 608.768,778.271 L 607.982,777.851 L 607.119,777.454 L 606.208,777.073 L 605.243,776.707 L 604.216,776.357 L 603.15,776.03 L 602.03,775.719 L 600.871,775.431 L 599.657,775.159 L 598.42,774.902 L 597.136,774.676 L 595.821,774.459 L 594.491,774.28 L 593.121,774.124 L 591.729,773.992 L 590.328,773.875 L 588.904,773.797 L 587.473,773.727 L 586.033,773.681 L 584.594,773.681 L 584.594,773.681 L 583.147,773.681 L 581.707,773.727 L 580.276,773.797 L 578.852,773.875 L 577.451,773.992 L 576.058,774.124 L 574.697,774.28 L 573.359,774.459 L 572.044,774.676 L 570.76,774.902 L 569.523,775.159 L 568.317,775.431 L 567.157,775.719 L 566.037,776.03 L 564.963,776.357 L 563.936,776.707 L 562.979,777.073 L 562.061,777.454 L 561.205,777.851 L 560.412,778.271 L 559.68,778.699 L 559.011,779.127 L 558.404,779.578 L 557.867,780.037 L 557.401,780.504 L 557.004,780.979 L 556.685,781.461 L 556.428,781.944 L 556.241,782.434 L 556.14,782.924 L 556.101,783.422 L 556.101,783.422 L 556.14,783.92 L 556.241,784.402 L 556.428,784.9 L 556.685,785.383 L 557.004,785.865 L 557.401,786.34 L 557.867,786.806 L 558.404,787.265 L 559.011,787.709 L 559.68,788.145 L 560.412,788.573 L 561.205,788.993 L 562.061,789.39 L 562.979,789.771 L 563.936,790.136 L 564.963,790.487 L 566.037,790.813 L 567.157,791.125 L 568.317,791.413 L 569.523,791.685 L 570.76,791.942 L 572.044,792.167 L 573.359,792.377 L 574.697,792.564 L 576.058,792.72 L 577.451,792.852 L 578.852,792.961 L 580.276,793.046 L 581.707,793.109 L 583.147,793.155 L 584.594,793.163 L 584.594,793.163 L 586.033,793.155 L 587.473,793.109 L 588.904,793.046 L 590.328,792.961 L 591.729,792.852 L 593.121,792.72 L 594.491,792.564 L 595.821,792.377 L 597.136,792.167 L 598.42,791.942 L 599.657,791.685 L 600.871,791.413 L 602.03,791.125 L 603.15,790.813 L 604.216,790.487 L 605.243,790.136 L 606.208,789.771 L 607.119,789.39 L 607.982,788.993 L 608.768,788.573 L 609.499,788.145 L 610.169,787.709 L 610.775,787.265 L 611.312,786.806 L 611.779,786.34 L 612.176,785.865 L 612.495,785.383 L 612.752,784.9 L 612.938,784.402 L 613.047,783.92 L 613.086,783.422z"/>
      <path style="fill: none; stroke-opacity: 1; stroke-width: 0.02; stroke: #494936" d="M 612.752 783.266 L 612.713,782.768 L 612.612,782.294 L 612.433,781.811 L 612.184,781.337 L 611.849,780.854 L 611.445,780.395 L 611.001,779.928 L 610.456,779.493 L 609.857,779.049 L 609.196,778.613 L 608.465,778.201 L 607.679,777.789 L 606.831,777.4 L 605.936,777.011 L 604.956,776.661 L 603.936,776.318 L 602.87,775.991 L 601.765,775.688 L 600.614,775.408 L 599.416,775.136 L 598.171,774.894 L 596.903,774.669 L 595.595,774.459 L 594.273,774.28 L 592.919,774.124 L 591.526,774 L 590.134,773.875 L 588.717,773.805 L 587.301,773.743 L 585.854,773.704 L 584.423,773.681 L 584.423,773.681 L 582.991,773.704 L 581.559,773.743 L 580.128,773.805 L 578.727,773.875 L 577.327,774 L 575.942,774.124 L 574.58,774.28 L 573.25,774.459 L 571.95,774.669 L 570.682,774.894 L 569.437,775.136 L 568.239,775.408 L 567.095,775.688 L 565.975,775.991 L 564.901,776.318 L 563.89,776.661 L 562.925,777.011 L 562.03,777.4 L 561.174,777.789 L 560.381,778.201 L 559.665,778.613 L 559.003,779.049 L 558.389,779.493 L 557.86,779.928 L 557.401,780.395 L 557.004,780.854 L 556.677,781.337 L 556.42,781.811 L 556.241,782.294 L 556.14,782.768 L 556.101,783.266 L 556.101,783.266 L 556.14,783.749 L 556.241,784.223 L 556.42,784.713 L 556.677,785.188 L 557.004,785.663 L 557.401,786.129 L 557.86,786.589 L 558.389,787.032 L 559.003,787.468 L 559.665,787.911 L 560.381,788.331 L 561.174,788.728 L 562.03,789.125 L 562.925,789.506 L 563.89,789.864 L 564.901,790.207 L 565.975,790.526 L 567.095,790.837 L 568.239,791.117 L 569.437,791.389 L 570.682,791.638 L 571.95,791.856 L 573.25,792.058 L 574.58,792.237 L 575.942,792.393 L 577.327,792.525 L 578.727,792.642 L 580.128,792.72 L 581.559,792.782 L 582.991,792.821 L 584.423,792.836 L 584.423,792.836 L 585.854,792.821 L 587.301,792.782 L 588.717,792.72 L 590.134,792.642 L 591.526,792.525 L 592.919,792.393 L 594.273,792.237 L 595.595,792.058 L 596.903,791.856 L 598.171,791.638 L 599.416,791.389 L 600.614,791.117 L 601.765,790.837 L 602.87,790.526 L 603.936,790.207 L 604.956,789.864 L 605.936,789.506 L 606.831,789.125 L 607.679,788.728 L 608.465,788.331 L 609.196,787.911 L 609.857,787.468 L 610.456,787.032 L 611.001,786.589 L 611.445,786.129 L 611.849,785.663 L 612.184,785.188 L 612.433,784.713 L 612.612,784.223 L 612.713,783.749 L 612.752,783.266"/>
      <path style="fill: #a5a585; fill-opacity: 1; stroke: none" fill-rule="evenodd" d="M 556.101 763.076 L 556.101,783.593 L 612.752,783.593 L 612.752,763.076 L 556.101,763.076z"/>
      <path style="fill: #c9c9b6; fill-opacity: 1; stroke: none" fill-rule="evenodd" d="M 613.086 762.904 L 613.047,762.399 L 612.938,761.909 L 612.752,761.426 L 612.495,760.944 L 612.176,760.454 L 611.779,759.979 L 611.312,759.504 L 610.775,759.061 L 610.169,758.617 L 609.499,758.166 L 608.768,757.754 L 607.982,757.334 L 607.119,756.929 L 606.208,756.555 L 605.243,756.19 L 604.216,755.832 L 603.15,755.505 L 602.03,755.202 L 600.871,754.906 L 599.657,754.634 L 598.42,754.385 L 597.136,754.159 L 595.821,753.949 L 594.491,753.762 L 593.121,753.607 L 591.729,753.474 L 590.328,753.365 L 588.904,753.28 L 587.473,753.21 L 586.033,753.171 L 584.594,753.163 L 584.594,753.163 L 583.147,753.171 L 581.707,753.21 L 580.276,753.28 L 578.852,753.365 L 577.451,753.474 L 576.058,753.607 L 574.697,753.762 L 573.359,753.949 L 572.044,754.159 L 570.76,754.385 L 569.523,754.634 L 568.317,754.906 L 567.157,755.202 L 566.037,755.505 L 564.963,755.832 L 563.936,756.19 L 562.979,756.555 L 562.061,756.929 L 561.205,757.334 L 560.412,757.754 L 559.68,758.166 L 559.011,758.617 L 558.404,759.061 L 557.867,759.504 L 557.401,759.979 L 557.004,760.454 L 556.685,760.944 L 556.428,761.426 L 556.241,761.909 L 556.14,762.399 L 556.101,762.904 L 556.101,762.904 L 556.14,763.395 L 556.241,763.893 L 556.428,764.367 L 556.685,764.865 L 557.004,765.34 L 557.401,765.822 L 557.867,766.289 L 558.404,766.74 L 559.011,767.192 L 559.68,767.627 L 560.412,768.055 L 561.205,768.468 L 562.061,768.864 L 562.979,769.246 L 563.936,769.619 L 564.963,769.961 L 566.037,770.296 L 567.157,770.607 L 568.317,770.895 L 569.523,771.167 L 570.76,771.424 L 572.044,771.642 L 573.359,771.86 L 574.697,772.039 L 576.058,772.194 L 577.451,772.335 L 578.852,772.436 L 580.276,772.529 L 581.707,772.591 L 583.147,772.63 L 584.594,772.646 L 584.594,772.646 L 586.033,772.63 L 587.473,772.591 L 588.904,772.529 L 590.328,772.436 L 591.729,772.335 L 593.121,772.194 L 594.491,772.039 L 595.821,771.86 L 597.136,771.642 L 598.42,771.424 L 599.657,771.167 L 600.871,770.895 L 602.03,770.607 L 603.15,770.296 L 604.216,769.961 L 605.243,769.619 L 606.208,769.246 L 607.119,768.864 L 607.982,768.468 L 608.768,768.055 L 609.499,767.627 L 610.169,767.192 L 610.775,766.74 L 611.312,766.289 L 611.779,765.822 L 612.176,765.34 L 612.495,764.865 L 612.752,764.367 L 612.938,763.893 L 613.047,763.395 L 613.086,762.904z"/>
      <path style="fill: none; stroke-opacity: 1; stroke-width: 0.02; stroke: #494936" d="M 612.752 762.749 L 612.713,762.251 L 612.612,761.776 L 612.433,761.302 L 612.184,760.819 L 611.849,760.329 L 611.445,759.87 L 611.001,759.427 L 610.456,758.967 L 609.857,758.532 L 609.196,758.088 L 608.465,757.684 L 607.679,757.271 L 606.831,756.874 L 605.936,756.509 L 604.956,756.143 L 603.936,755.809 L 602.87,755.482 L 601.765,755.171 L 600.614,754.883 L 599.416,754.618 L 598.171,754.377 L 596.903,754.151 L 595.595,753.949 L 594.273,753.762 L 592.919,753.607 L 591.526,753.474 L 590.134,753.365 L 588.717,753.28 L 588.243,753.257 L 580.602,753.257 L 580.128,753.28 L 578.727,753.365 L 577.327,753.474 L 575.942,753.607 L 574.58,753.762 L 573.25,753.949 L 571.95,754.151 L 570.682,754.377 L 569.437,754.618 L 568.239,754.883 L 567.095,755.171 L 565.975,755.482 L 564.901,755.809 L 563.89,756.143 L 562.925,756.509 L 562.03,756.874 L 561.174,757.271 L 560.381,757.684 L 559.665,758.088 L 559.003,758.532 L 558.389,758.967 L 557.86,759.427 L 557.401,759.87 L 557.004,760.329 L 556.677,760.819 L 556.42,761.302 L 556.241,761.776 L 556.14,762.251 L 556.101,762.749 L 556.101,762.749 L 556.14,763.223 L 556.241,763.714 L 556.42,764.196 L 556.677,764.671 L 557.004,765.145 L 557.401,765.612 L 557.86,766.063 L 558.389,766.522 L 559.003,766.958 L 559.665,767.394 L 560.381,767.814 L 561.174,768.211 L 562.03,768.6 L 562.925,768.989 L 563.89,769.347 L 564.901,769.681 L 565.975,770 L 567.095,770.312 L 568.239,770.592 L 569.437,770.864 L 570.682,771.121 L 571.95,771.323 L 573.25,771.541 L 574.58,771.712 L 575.942,771.875 L 577.327,772.016 L 578.727,772.124 L 580.128,772.21 L 581.559,772.264 L 582.991,772.296 L 584.423,772.319 L 584.423,772.319 L 585.854,772.296 L 587.301,772.264 L 588.717,772.21 L 590.134,772.124 L 591.526,772.016 L 592.919,771.875 L 594.273,771.712 L 595.595,771.541 L 596.903,771.323 L 598.171,771.121 L 599.416,770.864 L 600.614,770.592 L 601.765,770.312 L 602.87,770 L 603.936,769.681 L 604.956,769.347 L 605.936,768.989 L 606.831,768.6 L 607.679,768.211 L 608.465,767.814 L 609.196,767.394 L 609.857,766.958 L 610.456,766.522 L 611.001,766.063 L 611.445,765.612 L 611.849,765.145 L 612.184,764.671 L 612.433,764.196 L 612.612,763.714 L 612.713,763.223 L 612.752,762.749"/>
      <path style="fill: none; stroke-opacity: 1; stroke-width: 0.02; stroke: #000000" d="M 556.101 762.749 L 556.101,783.251"/>
      <path style="fill: none; stroke-opacity: 1; stroke-width: 0.02; stroke: #000000" d="M 612.752 762.749 L 612.752,783.251"/>
    </g>
    <text font-size="12.8" style="fill: #000000; fill-opacity: 1; stroke: none;text-anchor:middle;font-family:sans-serif;font-style:normal;font-weight:normal" x="584.385" y="784.994">
      <tspan x="584.385" y="784.994">Volume</tspan>
      <tspan x="584.385" y="800.994">/app/web/sites</tspan>
    </text>
    <g>
      <path style="fill: #a5a585; fill-opacity: 1; stroke: none" fill-rule="evenodd" d="M 626.813 950.802 L 626.772,950.286 L 626.66,949.779 L 626.466,949.271 L 626.2,948.771 L 625.87,948.272 L 625.459,947.78 L 624.975,947.297 L 624.419,946.821 L 623.791,946.354 L 623.098,945.911 L 622.34,945.468 L 621.526,945.032 L 620.632,944.621 L 619.689,944.227 L 618.69,943.848 L 617.626,943.485 L 616.522,943.147 L 615.362,942.824 L 614.161,942.526 L 612.904,942.244 L 611.623,941.978 L 610.293,941.745 L 608.931,941.519 L 607.553,941.334 L 606.135,941.172 L 604.693,941.035 L 603.242,940.915 L 601.767,940.834 L 600.285,940.761 L 598.794,940.713 L 597.303,940.713 L 597.303,940.713 L 595.804,940.713 L 594.313,940.761 L 592.831,940.834 L 591.356,940.915 L 589.905,941.035 L 588.463,941.172 L 587.053,941.334 L 585.667,941.519 L 584.305,941.745 L 582.975,941.978 L 581.694,942.244 L 580.445,942.526 L 579.244,942.824 L 578.084,943.147 L 576.972,943.485 L 575.908,943.848 L 574.917,944.227 L 573.966,944.621 L 573.08,945.032 L 572.258,945.468 L 571.5,945.911 L 570.807,946.354 L 570.178,946.821 L 569.622,947.297 L 569.139,947.78 L 568.728,948.272 L 568.398,948.771 L 568.132,949.271 L 567.938,949.779 L 567.834,950.286 L 567.793,950.802 L 567.793,950.802 L 567.834,951.318 L 567.938,951.818 L 568.132,952.333 L 568.398,952.833 L 568.728,953.332 L 569.139,953.824 L 569.622,954.308 L 570.178,954.783 L 570.807,955.242 L 571.5,955.694 L 572.258,956.137 L 573.08,956.572 L 573.966,956.983 L 574.917,957.378 L 575.908,957.757 L 576.972,958.119 L 578.084,958.458 L 579.244,958.78 L 580.445,959.078 L 581.694,959.36 L 582.975,959.626 L 584.305,959.86 L 585.667,960.077 L 587.053,960.271 L 588.463,960.432 L 589.905,960.569 L 591.356,960.682 L 592.831,960.77 L 594.313,960.835 L 595.804,960.883 L 597.303,960.891 L 597.303,960.891 L 598.794,960.883 L 600.285,960.835 L 601.767,960.77 L 603.242,960.682 L 604.693,960.569 L 606.135,960.432 L 607.553,960.271 L 608.931,960.077 L 610.293,959.86 L 611.623,959.626 L 612.904,959.36 L 614.161,959.078 L 615.362,958.78 L 616.522,958.458 L 617.626,958.119 L 618.69,957.757 L 619.689,957.378 L 620.632,956.983 L 621.526,956.572 L 622.34,956.137 L 623.098,955.694 L 623.791,955.242 L 624.419,954.783 L 624.975,954.308 L 625.459,953.824 L 625.87,953.332 L 626.2,952.833 L 626.466,952.333 L 626.66,951.818 L 626.772,951.318 L 626.813,950.802z"/>
      <path style="fill: none; stroke-opacity: 1; stroke-width: 0.02; stroke: #494936" d="M 626.466 950.641 L 626.426,950.125 L 626.321,949.634 L 626.136,949.134 L 625.878,948.643 L 625.531,948.143 L 625.112,947.667 L 624.653,947.184 L 624.089,946.733 L 623.469,946.273 L 622.784,945.822 L 622.026,945.395 L 621.212,944.968 L 620.334,944.565 L 619.407,944.162 L 618.392,943.799 L 617.336,943.445 L 616.232,943.106 L 615.088,942.792 L 613.895,942.502 L 612.654,942.22 L 611.365,941.97 L 610.051,941.736 L 608.698,941.519 L 607.328,941.334 L 605.925,941.172 L 604.483,941.043 L 603.041,940.915 L 601.574,940.842 L 600.107,940.778 L 598.608,940.737 L 597.126,940.713 L 597.126,940.713 L 595.643,940.737 L 594.16,940.778 L 592.677,940.842 L 591.227,940.915 L 589.776,941.043 L 588.342,941.172 L 586.932,941.334 L 585.554,941.519 L 584.208,941.736 L 582.895,941.97 L 581.605,942.22 L 580.364,942.502 L 579.18,942.792 L 578.019,943.106 L 576.907,943.445 L 575.86,943.799 L 574.86,944.162 L 573.934,944.565 L 573.047,944.968 L 572.225,945.395 L 571.484,945.822 L 570.799,946.273 L 570.162,946.733 L 569.614,947.184 L 569.139,947.667 L 568.728,948.143 L 568.39,948.643 L 568.124,949.134 L 567.938,949.634 L 567.834,950.125 L 567.793,950.641 L 567.793,950.641 L 567.834,951.141 L 567.938,951.632 L 568.124,952.14 L 568.39,952.631 L 568.728,953.123 L 569.139,953.606 L 569.614,954.082 L 570.162,954.541 L 570.799,954.993 L 571.484,955.452 L 572.225,955.887 L 573.047,956.298 L 573.934,956.709 L 574.86,957.104 L 575.86,957.474 L 576.907,957.829 L 578.019,958.159 L 579.18,958.482 L 580.364,958.772 L 581.605,959.054 L 582.895,959.312 L 584.208,959.537 L 585.554,959.747 L 586.932,959.932 L 588.342,960.093 L 589.776,960.23 L 591.227,960.351 L 592.677,960.432 L 594.16,960.496 L 595.643,960.537 L 597.126,960.553 L 597.126,960.553 L 598.608,960.537 L 600.107,960.496 L 601.574,960.432 L 603.041,960.351 L 604.483,960.23 L 605.925,960.093 L 607.328,959.932 L 608.698,959.747 L 610.051,959.537 L 611.365,959.312 L 612.654,959.054 L 613.895,958.772 L 615.088,958.482 L 616.232,958.159 L 617.336,957.829 L 618.392,957.474 L 619.407,957.104 L 620.334,956.709 L 621.212,956.298 L 622.026,955.887 L 622.784,955.452 L 623.469,954.993 L 624.089,954.541 L 624.653,954.082 L 625.112,953.606 L 625.531,953.123 L 625.878,952.631 L 626.136,952.14 L 626.321,951.632 L 626.426,951.141 L 626.466,950.641"/>
      <path style="fill: #a5a585; fill-opacity: 1; stroke: none" fill-rule="evenodd" d="M 567.793 929.73 L 567.793,950.979 L 626.466,950.979 L 626.466,929.73 L 567.793,929.73z"/>
      <path style="fill: #c9c9b6; fill-opacity: 1; stroke: none" fill-rule="evenodd" d="M 626.813 929.552 L 626.772,929.028 L 626.66,928.521 L 626.466,928.021 L 626.2,927.522 L 625.87,927.014 L 625.459,926.522 L 624.975,926.031 L 624.419,925.571 L 623.791,925.112 L 623.098,924.645 L 622.34,924.218 L 621.526,923.782 L 620.632,923.363 L 619.689,922.977 L 618.69,922.598 L 617.626,922.227 L 616.522,921.889 L 615.362,921.574 L 614.161,921.268 L 612.904,920.986 L 611.623,920.728 L 610.293,920.495 L 608.931,920.277 L 607.553,920.084 L 606.135,919.922 L 604.693,919.785 L 603.242,919.673 L 601.767,919.584 L 600.285,919.511 L 598.794,919.471 L 597.303,919.463 L 597.303,919.463 L 595.804,919.471 L 594.313,919.511 L 592.831,919.584 L 591.356,919.673 L 589.905,919.785 L 588.463,919.922 L 587.053,920.084 L 585.667,920.277 L 584.305,920.495 L 582.975,920.728 L 581.694,920.986 L 580.445,921.268 L 579.244,921.574 L 578.084,921.889 L 576.972,922.227 L 575.908,922.598 L 574.917,922.977 L 573.966,923.363 L 573.08,923.782 L 572.258,924.218 L 571.5,924.645 L 570.807,925.112 L 570.178,925.571 L 569.622,926.031 L 569.139,926.522 L 568.728,927.014 L 568.398,927.522 L 568.132,928.021 L 567.938,928.521 L 567.834,929.028 L 567.793,929.552 L 567.793,929.552 L 567.834,930.06 L 567.938,930.576 L 568.132,931.067 L 568.398,931.583 L 568.728,932.074 L 569.139,932.574 L 569.622,933.058 L 570.178,933.525 L 570.807,933.992 L 571.5,934.444 L 572.258,934.887 L 573.08,935.314 L 573.966,935.725 L 574.917,936.12 L 575.908,936.507 L 576.972,936.861 L 578.084,937.208 L 579.244,937.53 L 580.445,937.828 L 581.694,938.11 L 582.975,938.376 L 584.305,938.602 L 585.667,938.827 L 587.053,939.013 L 588.463,939.174 L 589.905,939.319 L 591.356,939.424 L 592.831,939.52 L 594.313,939.585 L 595.804,939.625 L 597.303,939.641 L 597.303,939.641 L 598.794,939.625 L 600.285,939.585 L 601.767,939.52 L 603.242,939.424 L 604.693,939.319 L 606.135,939.174 L 607.553,939.013 L 608.931,938.827 L 610.293,938.602 L 611.623,938.376 L 612.904,938.11 L 614.161,937.828 L 615.362,937.53 L 616.522,937.208 L 617.626,936.861 L 618.69,936.507 L 619.689,936.12 L 620.632,935.725 L 621.526,935.314 L 622.34,934.887 L 623.098,934.444 L 623.791,933.992 L 624.419,933.525 L 624.975,933.058 L 625.459,932.574 L 625.87,932.074 L 626.2,931.583 L 626.466,931.067 L 626.66,930.576 L 626.772,930.06 L 626.813,929.552z"/>
      <path style="fill: none; stroke-opacity: 1; stroke-width: 0.02; stroke: #494936" d="M 626.466 929.391 L 626.426,928.875 L 626.321,928.384 L 626.136,927.892 L 625.878,927.393 L 625.531,926.885 L 625.112,926.409 L 624.653,925.95 L 624.089,925.475 L 623.469,925.023 L 622.784,924.564 L 622.026,924.145 L 621.212,923.718 L 620.334,923.307 L 619.407,922.928 L 618.392,922.55 L 617.336,922.203 L 616.232,921.865 L 615.088,921.542 L 613.895,921.244 L 612.654,920.97 L 611.365,920.72 L 610.051,920.487 L 608.698,920.277 L 607.328,920.084 L 605.925,919.922 L 604.483,919.785 L 603.041,919.673 L 601.574,919.584 L 601.082,919.56 L 593.169,919.56 L 592.677,919.584 L 591.227,919.673 L 589.776,919.785 L 588.342,919.922 L 586.932,920.084 L 585.554,920.277 L 584.208,920.487 L 582.895,920.72 L 581.605,920.97 L 580.364,921.244 L 579.18,921.542 L 578.019,921.865 L 576.907,922.203 L 575.86,922.55 L 574.86,922.928 L 573.934,923.307 L 573.047,923.718 L 572.225,924.145 L 571.484,924.564 L 570.799,925.023 L 570.162,925.475 L 569.614,925.95 L 569.139,926.409 L 568.728,926.885 L 568.39,927.393 L 568.124,927.892 L 567.938,928.384 L 567.834,928.875 L 567.793,929.391 L 567.793,929.391 L 567.834,929.883 L 567.938,930.39 L 568.124,930.89 L 568.39,931.381 L 568.728,931.873 L 569.139,932.357 L 569.614,932.824 L 570.162,933.299 L 570.799,933.751 L 571.484,934.202 L 572.225,934.637 L 573.047,935.048 L 573.934,935.451 L 574.86,935.854 L 575.86,936.225 L 576.907,936.571 L 578.019,936.901 L 579.18,937.224 L 580.364,937.514 L 581.605,937.796 L 582.895,938.062 L 584.208,938.271 L 585.554,938.497 L 586.932,938.674 L 588.342,938.844 L 589.776,938.989 L 591.227,939.101 L 592.677,939.19 L 594.16,939.246 L 595.643,939.279 L 597.126,939.303 L 597.126,939.303 L 598.608,939.279 L 600.107,939.246 L 601.574,939.19 L 603.041,939.101 L 604.483,938.989 L 605.925,938.844 L 607.328,938.674 L 608.698,938.497 L 610.051,938.271 L 611.365,938.062 L 612.654,937.796 L 613.895,937.514 L 615.088,937.224 L 616.232,936.901 L 617.336,936.571 L 618.392,936.225 L 619.407,935.854 L 620.334,935.451 L 621.212,935.048 L 622.026,934.637 L 622.784,934.202 L 623.469,933.751 L 624.089,933.299 L 624.653,932.824 L 625.112,932.357 L 625.531,931.873 L 625.878,931.381 L 626.136,930.89 L 626.321,930.39 L 626.426,929.883 L 626.466,929.391"/>
      <path style="fill: none; stroke-opacity: 1; stroke-width: 0.02; stroke: #000000" d="M 567.793 929.391 L 567.793,950.625"/>
      <path style="fill: none; stroke-opacity: 1; stroke-width: 0.02; stroke: #000000" d="M 626.466 929.391 L 626.466,950.625"/>
    </g>
    <text font-size="12.8" style="fill: #000000; fill-opacity: 1; stroke: none;text-anchor:middle;font-family:sans-serif;font-style:normal;font-weight:normal" x="597.089" y="952.006">
      <tspan x="597.089" y="952.006">Volume</tspan>
      <tspan x="597.089" y="968.006">/var/lib/mysql</tspan>
    </text>
    <rect style="fill: #ffbdbd; fill-opacity: 1; stroke-opacity: 1; stroke-width: 2; stroke: #000000" x="680.721" y="460.392" width="195" height="137.918" rx="0" ry="0"/>
    <rect style="fill: #ffffff; fill-opacity: 1; stroke-opacity: 1; stroke-width: 2; stroke: #000000" x="711.721" y="481.392" width="135" height="93.9999" rx="0" ry="0"/>
    <text font-size="12.8" style="fill: #000000; fill-opacity: 1; stroke: none;text-anchor:middle;font-family:sans-serif;font-style:normal;font-weight:normal" x="779.221" y="500.823">
      <tspan x="779.221" y="500.823">Traefik</tspan>
      <tspan x="779.221" y="516.823">Ingress</tspan>
      <tspan x="779.221" y="532.823">Controller</tspan>
      <tspan x="779.221" y="548.823">Certificat wildcard</tspan>
      <tspan x="779.221" y="564.823">Forward HTTPS</tspan>
    </text>
    <text font-size="12.8" style="fill: #000000; fill-opacity: 1; stroke: none;text-anchor:end;font-family:sans-serif;font-style:normal;font-weight:normal" x="875.721" y="595.292">
      <tspan x="875.721" y="595.292">Pod  </tspan>
    </text>
    <text font-size="12.8" style="fill: #000000; fill-opacity: 1; stroke: none;text-anchor:start;font-family:sans-serif;font-style:normal;font-weight:normal" x="866.721" y="567.711">
      <tspan x="866.721" y="567.711"></tspan>
    </text>
    <rect style="fill: #ffbdbd; fill-opacity: 1; stroke-opacity: 1; stroke-width: 2; stroke: #000000" x="689.623" y="654.085" width="323.015" height="202" rx="0" ry="0"/>
    <text font-size="12.8" style="fill: #000000; fill-opacity: 1; stroke: none;text-anchor:end;font-family:sans-serif;font-style:normal;font-weight:normal" x="1012.64" y="853.066">
      <tspan x="1012.64" y="853.066">Pod  </tspan>
    </text>
    <rect style="fill: #ffbdbd; fill-opacity: 1; stroke-opacity: 1; stroke-width: 2; stroke: #000000" x="686.623" y="906.835" width="326.918" height="110.082" rx="0" ry="0"/>
    <text font-size="12.8" style="fill: #000000; fill-opacity: 1; stroke: none;text-anchor:end;font-family:sans-serif;font-style:normal;font-weight:normal" x="1013.54" y="1013.9">
      <tspan x="1013.54" y="1013.9">Pod  </tspan>
    </text>
    <text font-size="12.8" style="fill: #000000; fill-opacity: 1; stroke: none;text-anchor:start;font-family:sans-serif;font-style:normal;font-weight:normal" x="1121.36" y="721.394">
      <tspan x="1121.36" y="721.394"></tspan>
    </text>
    <g>
      <path style="fill: #a5a585; fill-opacity: 1; stroke: none" fill-rule="evenodd" d="M 993.533 734.562 L 993.494,734.065 L 993.385,733.574 L 993.198,733.084 L 992.942,732.602 L 992.623,732.119 L 992.226,731.645 L 991.759,731.178 L 991.222,730.719 L 990.615,730.268 L 989.946,729.84 L 989.215,729.412 L 988.429,728.992 L 987.565,728.595 L 986.655,728.214 L 985.69,727.848 L 984.663,727.498 L 983.597,727.171 L 982.477,726.86 L 981.317,726.572 L 980.104,726.3 L 978.867,726.043 L 977.583,725.817 L 976.268,725.599 L 974.937,725.42 L 973.568,725.265 L 972.175,725.132 L 970.775,725.016 L 969.351,724.938 L 967.919,724.868 L 966.48,724.821 L 965.04,724.821 L 965.04,724.821 L 963.593,724.821 L 962.154,724.868 L 960.722,724.938 L 959.298,725.016 L 957.898,725.132 L 956.505,725.265 L 955.144,725.42 L 953.805,725.599 L 952.49,725.817 L 951.207,726.043 L 949.969,726.3 L 948.763,726.572 L 947.604,726.86 L 946.484,727.171 L 945.41,727.498 L 944.383,727.848 L 943.426,728.214 L 942.508,728.595 L 941.652,728.992 L 940.858,729.412 L 940.127,729.84 L 939.458,730.268 L 938.851,730.719 L 938.314,731.178 L 937.847,731.645 L 937.45,732.119 L 937.131,732.602 L 936.875,733.084 L 936.688,733.574 L 936.587,734.065 L 936.548,734.562 L 936.548,734.562 L 936.587,735.06 L 936.688,735.543 L 936.875,736.041 L 937.131,736.523 L 937.45,737.006 L 937.847,737.48 L 938.314,737.947 L 938.851,738.406 L 939.458,738.85 L 940.127,739.285 L 940.858,739.713 L 941.652,740.133 L 942.508,740.53 L 943.426,740.911 L 944.383,741.277 L 945.41,741.627 L 946.484,741.954 L 947.604,742.265 L 948.763,742.553 L 949.969,742.825 L 951.207,743.082 L 952.49,743.308 L 953.805,743.518 L 955.144,743.705 L 956.505,743.86 L 957.898,743.993 L 959.298,744.101 L 960.722,744.187 L 962.154,744.249 L 963.593,744.296 L 965.04,744.304 L 965.04,744.304 L 966.48,744.296 L 967.919,744.249 L 969.351,744.187 L 970.775,744.101 L 972.175,743.993 L 973.568,743.86 L 974.937,743.705 L 976.268,743.518 L 977.583,743.308 L 978.867,743.082 L 980.104,742.825 L 981.317,742.553 L 982.477,742.265 L 983.597,741.954 L 984.663,741.627 L 985.69,741.277 L 986.655,740.911 L 987.565,740.53 L 988.429,740.133 L 989.215,739.713 L 989.946,739.285 L 990.615,738.85 L 991.222,738.406 L 991.759,737.947 L 992.226,737.48 L 992.623,737.006 L 992.942,736.523 L 993.198,736.041 L 993.385,735.543 L 993.494,735.06 L 993.533,734.562z"/>
      <path style="fill: none; stroke-opacity: 1; stroke-width: 0.02; stroke: #494936" d="M 993.198 734.407 L 993.159,733.909 L 993.058,733.434 L 992.879,732.952 L 992.63,732.477 L 992.296,731.995 L 991.891,731.536 L 991.448,731.069 L 990.903,730.633 L 990.304,730.19 L 989.643,729.754 L 988.911,729.342 L 988.125,728.929 L 987.277,728.54 L 986.383,728.151 L 985.402,727.801 L 984.383,727.459 L 983.317,727.132 L 982.212,726.829 L 981.061,726.548 L 979.862,726.276 L 978.618,726.035 L 977.349,725.809 L 976.042,725.599 L 974.719,725.42 L 973.366,725.265 L 971.973,725.14 L 970.58,725.016 L 969.164,724.946 L 967.748,724.883 L 966.301,724.845 L 964.869,724.821 L 964.869,724.821 L 963.438,724.845 L 962.006,724.883 L 960.574,724.946 L 959.174,725.016 L 957.773,725.14 L 956.388,725.265 L 955.027,725.42 L 953.696,725.599 L 952.397,725.809 L 951.129,726.035 L 949.884,726.276 L 948.686,726.548 L 947.542,726.829 L 946.421,727.132 L 945.348,727.459 L 944.336,727.801 L 943.371,728.151 L 942.477,728.54 L 941.621,728.929 L 940.827,729.342 L 940.111,729.754 L 939.45,730.19 L 938.835,730.633 L 938.306,731.069 L 937.847,731.536 L 937.45,731.995 L 937.124,732.477 L 936.867,732.952 L 936.688,733.434 L 936.587,733.909 L 936.548,734.407 L 936.548,734.407 L 936.587,734.889 L 936.688,735.364 L 936.867,735.854 L 937.124,736.329 L 937.45,736.803 L 937.847,737.27 L 938.306,737.729 L 938.835,738.173 L 939.45,738.608 L 940.111,739.052 L 940.827,739.472 L 941.621,739.869 L 942.477,740.266 L 943.371,740.647 L 944.336,741.005 L 945.348,741.347 L 946.421,741.666 L 947.542,741.977 L 948.686,742.257 L 949.884,742.53 L 951.129,742.779 L 952.397,742.997 L 953.696,743.199 L 955.027,743.378 L 956.388,743.534 L 957.773,743.666 L 959.174,743.782 L 960.574,743.86 L 962.006,743.923 L 963.438,743.961 L 964.869,743.977 L 964.869,743.977 L 966.301,743.961 L 967.748,743.923 L 969.164,743.86 L 970.58,743.782 L 971.973,743.666 L 973.366,743.534 L 974.719,743.378 L 976.042,743.199 L 977.349,742.997 L 978.618,742.779 L 979.862,742.53 L 981.061,742.257 L 982.212,741.977 L 983.317,741.666 L 984.383,741.347 L 985.402,741.005 L 986.383,740.647 L 987.277,740.266 L 988.125,739.869 L 988.911,739.472 L 989.643,739.052 L 990.304,738.608 L 990.903,738.173 L 991.448,737.729 L 991.891,737.27 L 992.296,736.803 L 992.63,736.329 L 992.879,735.854 L 993.058,735.364 L 993.159,734.889 L 993.198,734.407"/>
      <path style="fill: #a5a585; fill-opacity: 1; stroke: none" fill-rule="evenodd" d="M 936.548 714.216 L 936.548,734.734 L 993.198,734.734 L 993.198,714.216 L 936.548,714.216z"/>
      <path style="fill: #c9c9b6; fill-opacity: 1; stroke: none" fill-rule="evenodd" d="M 993.533 714.045 L 993.494,713.539 L 993.385,713.049 L 993.198,712.567 L 992.942,712.084 L 992.623,711.594 L 992.226,711.12 L 991.759,710.645 L 991.222,710.201 L 990.615,709.758 L 989.946,709.307 L 989.215,708.894 L 988.429,708.474 L 987.565,708.07 L 986.655,707.696 L 985.69,707.33 L 984.663,706.973 L 983.597,706.646 L 982.477,706.342 L 981.317,706.047 L 980.104,705.774 L 978.867,705.525 L 977.583,705.3 L 976.268,705.09 L 974.937,704.903 L 973.568,704.747 L 972.175,704.615 L 970.775,704.506 L 969.351,704.42 L 967.919,704.35 L 966.48,704.312 L 965.04,704.304 L 965.04,704.304 L 963.593,704.312 L 962.154,704.35 L 960.722,704.42 L 959.298,704.506 L 957.898,704.615 L 956.505,704.747 L 955.144,704.903 L 953.805,705.09 L 952.49,705.3 L 951.207,705.525 L 949.969,705.774 L 948.763,706.047 L 947.604,706.342 L 946.484,706.646 L 945.41,706.973 L 944.383,707.33 L 943.426,707.696 L 942.508,708.07 L 941.652,708.474 L 940.858,708.894 L 940.127,709.307 L 939.458,709.758 L 938.851,710.201 L 938.314,710.645 L 937.847,711.12 L 937.45,711.594 L 937.131,712.084 L 936.875,712.567 L 936.688,713.049 L 936.587,713.539 L 936.548,714.045 L 936.548,714.045 L 936.587,714.535 L 936.688,715.033 L 936.875,715.508 L 937.131,716.006 L 937.45,716.48 L 937.847,716.963 L 938.314,717.43 L 938.851,717.881 L 939.458,718.332 L 940.127,718.768 L 940.858,719.196 L 941.652,719.608 L 942.508,720.005 L 943.426,720.386 L 944.383,720.76 L 945.41,721.102 L 946.484,721.437 L 947.604,721.748 L 948.763,722.036 L 949.969,722.308 L 951.207,722.565 L 952.49,722.783 L 953.805,723.001 L 955.144,723.179 L 956.505,723.335 L 957.898,723.475 L 959.298,723.576 L 960.722,723.67 L 962.154,723.732 L 963.593,723.771 L 965.04,723.786 L 965.04,723.786 L 966.48,723.771 L 967.919,723.732 L 969.351,723.67 L 970.775,723.576 L 972.175,723.475 L 973.568,723.335 L 974.937,723.179 L 976.268,723.001 L 977.583,722.783 L 978.867,722.565 L 980.104,722.308 L 981.317,722.036 L 982.477,721.748 L 983.597,721.437 L 984.663,721.102 L 985.69,720.76 L 986.655,720.386 L 987.565,720.005 L 988.429,719.608 L 989.215,719.196 L 989.946,718.768 L 990.615,718.332 L 991.222,717.881 L 991.759,717.43 L 992.226,716.963 L 992.623,716.48 L 992.942,716.006 L 993.198,715.508 L 993.385,715.033 L 993.494,714.535 L 993.533,714.045z"/>
      <path style="fill: none; stroke-opacity: 1; stroke-width: 0.02; stroke: #494936" d="M 993.198 713.889 L 993.159,713.392 L 993.058,712.917 L 992.879,712.442 L 992.63,711.96 L 992.296,711.47 L 991.891,711.011 L 991.448,710.567 L 990.903,710.108 L 990.304,709.672 L 989.643,709.229 L 988.911,708.824 L 988.125,708.412 L 987.277,708.015 L 986.383,707.649 L 985.402,707.284 L 984.383,706.949 L 983.317,706.622 L 982.212,706.311 L 981.061,706.023 L 979.862,705.759 L 978.618,705.518 L 977.349,705.292 L 976.042,705.09 L 974.719,704.903 L 973.366,704.747 L 971.973,704.615 L 970.58,704.506 L 969.164,704.42 L 968.69,704.397 L 961.049,704.397 L 960.574,704.42 L 959.174,704.506 L 957.773,704.615 L 956.388,704.747 L 955.027,704.903 L 953.696,705.09 L 952.397,705.292 L 951.129,705.518 L 949.884,705.759 L 948.686,706.023 L 947.542,706.311 L 946.421,706.622 L 945.348,706.949 L 944.336,707.284 L 943.371,707.649 L 942.477,708.015 L 941.621,708.412 L 940.827,708.824 L 940.111,709.229 L 939.45,709.672 L 938.835,710.108 L 938.306,710.567 L 937.847,711.011 L 937.45,711.47 L 937.124,711.96 L 936.867,712.442 L 936.688,712.917 L 936.587,713.392 L 936.548,713.889 L 936.548,713.889 L 936.587,714.364 L 936.688,714.854 L 936.867,715.337 L 937.124,715.811 L 937.45,716.286 L 937.847,716.753 L 938.306,717.204 L 938.835,717.663 L 939.45,718.099 L 940.111,718.534 L 940.827,718.955 L 941.621,719.351 L 942.477,719.74 L 943.371,720.129 L 944.336,720.487 L 945.348,720.822 L 946.421,721.141 L 947.542,721.452 L 948.686,721.732 L 949.884,722.005 L 951.129,722.261 L 952.397,722.464 L 953.696,722.682 L 955.027,722.853 L 956.388,723.016 L 957.773,723.156 L 959.174,723.265 L 960.574,723.351 L 962.006,723.405 L 963.438,723.436 L 964.869,723.46 L 964.869,723.46 L 966.301,723.436 L 967.748,723.405 L 969.164,723.351 L 970.58,723.265 L 971.973,723.156 L 973.366,723.016 L 974.719,722.853 L 976.042,722.682 L 977.349,722.464 L 978.618,722.261 L 979.862,722.005 L 981.061,721.732 L 982.212,721.452 L 983.317,721.141 L 984.383,720.822 L 985.402,720.487 L 986.383,720.129 L 987.277,719.74 L 988.125,719.351 L 988.911,718.955 L 989.643,718.534 L 990.304,718.099 L 990.903,717.663 L 991.448,717.204 L 991.891,716.753 L 992.296,716.286 L 992.63,715.811 L 992.879,715.337 L 993.058,714.854 L 993.159,714.364 L 993.198,713.889"/>
      <path style="fill: none; stroke-opacity: 1; stroke-width: 0.02; stroke: #000000" d="M 936.548 713.889 L 936.548,734.391"/>
      <path style="fill: none; stroke-opacity: 1; stroke-width: 0.02; stroke: #000000" d="M 993.198 713.889 L 993.198,734.391"/>
    </g>
    <text font-size="12.8" style="fill: #000000; fill-opacity: 1; stroke: none;text-anchor:middle;font-family:sans-serif;font-style:normal;font-weight:normal" x="964.834" y="712.685">
      <tspan x="964.834" y="712.685">Volume</tspan>
      <tspan x="964.834" y="728.685">EmptyDir</tspan>
      <tspan x="964.834" y="744.685">Socket Unix</tspan>
    </text>
    <rect style="fill: #ffffff; fill-opacity: 1; stroke-opacity: 1; stroke-width: 2; stroke: #000000" x="712.623" y="683.835" width="135" height="63.8999" rx="0" ry="0"/>
    <text font-size="12.8" style="fill: #000000; fill-opacity: 1; stroke: none;text-anchor:middle;font-family:sans-serif;font-style:normal;font-weight:normal" x="780.123" y="704.216">
      <tspan x="780.123" y="704.216">Serveur</tspan>
      <tspan x="780.123" y="720.216">Web</tspan>
      <tspan x="780.123" y="736.216">Interne</tspan>
    </text>
    <rect style="fill: #ffffff; fill-opacity: 1; stroke-opacity: 1; stroke-width: 2; stroke: #000000" x="714.125" y="908.335" width="135" height="63.8999" rx="0" ry="0"/>
    <text font-size="12.8" style="fill: #000000; fill-opacity: 1; stroke: none;text-anchor:middle;font-family:sans-serif;font-style:normal;font-weight:normal" x="781.625" y="936.716">
      <tspan x="781.625" y="936.716">Serveur BD</tspan>
      <tspan x="781.625" y="952.716">MySQL</tspan>
    </text>
    <polyline style="fill: none; stroke-opacity: 1; stroke-width: 2; stroke: #0000ff" points="612.91,688.249 662.263,688.249 662.263,715.785 711.615,715.785 "/>
    <polyline style="fill: none; stroke-opacity: 1; stroke-width: 2; stroke: #0000ff" points="613.086,773.159 662.351,773.159 662.351,715.785 711.615,715.785 "/>
    <polyline style="fill: none; stroke-opacity: 1; stroke-width: 2; stroke: #0000ff" points="626.813,940.173 669.965,940.173 669.965,940.285 713.117,940.285 "/>
    <polyline style="fill: none; stroke-opacity: 1; stroke-width: 2; stroke: #0000ff" points="847.623,715.785 892.085,715.785 892.085,724.238 936.548,724.238 "/>
    <polyline style="fill: none; stroke-opacity: 1; stroke-width: 2; stroke: #0000ff" points="849.054,799.235 892.801,799.235 892.801,724.238 936.548,724.238 "/>
    <g>
      <polyline style="fill: none; stroke-opacity: 1; stroke-width: 2; stroke: #ff0000" points="710.721,359.392 710.721,419.889 779.221,419.889 779.221,469.386 "/>
      <polygon style="fill: #ff0000; fill-opacity: 1; stroke-opacity: 1; stroke-width: 2; stroke: #ff0000" fill-rule="evenodd" points="774.221,469.386 779.221,479.386 784.221,469.386 "/>
    </g>
    <g>
      <polyline style="fill: none; stroke-opacity: 1; stroke-width: 2; stroke: #ff0000" points="779.221,575.392 779.221,629.613 780.123,629.613 780.123,672.835 "/>
      <polygon style="fill: #ff0000; fill-opacity: 1; stroke-opacity: 1; stroke-width: 2; stroke: #ff0000" fill-rule="evenodd" points="775.123,672.835 780.123,682.835 785.123,672.835 "/>
    </g>
    <g>
      <polyline style="fill: none; stroke-opacity: 1; stroke-width: 2; stroke: #ff0000" points="781.554,831.184 781.554,869.256 781.625,869.256 781.625,896.327 "/>
      <polygon style="fill: #ff0000; fill-opacity: 1; stroke-opacity: 1; stroke-width: 2; stroke: #ff0000" fill-rule="evenodd" points="776.625,896.327 781.625,906.327 786.625,896.327 "/>
    </g>
    <rect style="fill: #ffbdbd; fill-opacity: 1; stroke-opacity: 1; stroke-width: 2; stroke: #000000" x="205.475" y="643.047" width="296.701" height="202" rx="0" ry="0"/>
    <text font-size="12.8" style="fill: #000000; fill-opacity: 1; stroke: none;text-anchor:end;font-family:sans-serif;font-style:normal;font-weight:normal" x="502.175" y="842.026">
      <tspan x="502.175" y="842.026">Pod  </tspan>
    </text>
    <rect style="fill: #ffffff; fill-opacity: 1; stroke-opacity: 1; stroke-width: 2; stroke: #000000" x="327.225" y="667.721" width="135" height="63.8999" rx="0" ry="0"/>
    <text font-size="12.8" style="fill: #000000; fill-opacity: 1; stroke: none;text-anchor:middle;font-family:sans-serif;font-style:normal;font-weight:normal" x="394.725" y="704.102">
      <tspan x="394.725" y="704.102">Cron</tspan>
    </text>
    <polyline style="fill: none; stroke-opacity: 1; stroke-width: 2; stroke: #0000ff" points="462.225,699.671 509.075,699.671 509.075,700.473 555.925,700.473 "/>
    <polyline style="fill: none; stroke-opacity: 1; stroke-width: 2; stroke: #0000ff" points="463.233,699.671 509.667,699.671 509.667,785.383 556.101,785.383 "/>
    <g>
      <polyline style="fill: none; stroke-opacity: 1; stroke-width: 2; stroke: #ff0000" points="394.267,818.443 394.267,862.885 781.625,862.885 781.625,897.591 "/>
      <polygon style="fill: #ff0000; fill-opacity: 1; stroke-opacity: 1; stroke-width: 2; stroke: #ff0000" fill-rule="evenodd" points="781.625,905.091 776.625,895.091 781.625,897.591 786.625,895.091 "/>
    </g>
    <text font-size="13.9305" style="fill: #ff0000; fill-opacity: 1; stroke: none;text-anchor:start;font-family:sans-serif;font-style:normal;font-weight:700" x="276.018" y="319.895">
      <tspan x="276.018" y="319.895">Schéma de fonctionnement général</tspan>
    </text>
    <text font-size="12.8" style="fill: #000000; fill-opacity: 1; stroke: none;text-anchor:start;font-family:sans-serif;font-style:normal;font-weight:normal" x="353.64" y="372.984">
      <tspan x="353.64" y="372.984">En rouge : requêtes</tspan>
    </text>
    <text font-size="12.8" style="fill: #000000; fill-opacity: 1; stroke: none;text-anchor:start;font-family:sans-serif;font-style:normal;font-weight:normal" x="358.746" y="408.722">
      <tspan x="358.746" y="408.722">En bleu : montages</tspan>
    </text>
    <text font-size="12.8" style="fill: #000000; fill-opacity: 1; stroke: none;text-anchor:middle;font-family:sans-serif;font-style:normal;font-weight:normal" x="599.074" y="834.004">
      <tspan x="599.074" y="834.004"></tspan>
      <tspan x="599.074" y="850.004"></tspan>
      <tspan x="599.074" y="866.004"></tspan>
      <tspan x="599.074" y="882.004"></tspan>
      <tspan x="599.074" y="898.004"></tspan>
      <tspan x="599.074" y="914.004"></tspan>
      <tspan x="599.074" y="930.004"></tspan>
      <tspan x="599.074" y="946.004"></tspan>
      <tspan x="599.074" y="962.004"></tspan>
      <tspan x="599.074" y="978.004"></tspan>
      <tspan x="599.074" y="994.004"></tspan>
      <tspan x="599.074" y="1010">Cluster de stockage</tspan>
    </text>
    <text font-size="12.8" style="fill: #000000; fill-opacity: 1; stroke: none;text-anchor:start;font-family:sans-serif;font-style:normal;font-weight:normal" x="567.897" y="813.005">
      <tspan x="567.897" y="813.005"></tspan>
    </text>
    <text font-size="12.8" style="fill: #000000; fill-opacity: 1; stroke: none;text-anchor:start;font-family:sans-serif;font-style:normal;font-weight:normal" x="585.345" y="990.757">
      <tspan x="585.345" y="990.757"></tspan>
    </text>
    <g>
      <path style="fill: none; stroke-opacity: 1; stroke-width: 0.02; stroke: #6c8f93" d="M 642.44 684.201 L 641.947,680.147 L 641.376,676.165 L 640.667,672.183 L 639.859,668.419 L 638.973,664.654 L 638.007,661.034 L 636.944,657.487 L 635.781,653.939 L 634.56,650.754 L 633.28,647.568 L 631.861,644.383 L 630.423,641.559 L 628.887,638.736 L 627.291,636.274 L 625.656,633.741 L 623.943,631.641 L 622.189,629.542 L 620.377,627.659 L 618.506,625.922 L 616.634,624.474 L 614.704,623.243 L 612.734,622.229 L 610.764,621.288 L 608.755,620.637 L 606.726,620.275 L 604.736,619.985 L 602.688,619.985 L 600.678,620.058 L 598.708,620.492 L 596.66,621.071 L 594.69,621.867 L 592.72,622.881 L 590.809,624.112 L 588.879,625.56 L 587.007,627.225 L 585.195,629.035 L 583.442,630.917 L 581.709,633.089 L 580.014,635.478 L 578.419,638.084 L 576.882,640.763 L 575.425,643.514 L 573.987,646.555 L 572.647,649.596 L 571.386,652.998 L 570.244,656.473 L 569.141,659.876 L 568.136,663.496 L 567.25,667.333 L 566.403,671.097 L 565.693,674.935 L 565.043,678.916 L 564.531,682.971 L 564.118,687.025"/>
      <path style="fill: none; stroke-opacity: 1; stroke-width: 0.02; stroke: #6c8f93" d="M 569.968 681.957 L 568.747,679.351 L 567.486,676.962 L 566.186,674.717 L 564.827,672.618 L 563.428,670.736 L 562.03,669.143 L 560.592,667.55 L 559.114,666.247 L 557.637,665.233 L 556.12,664.292 L 554.583,663.568 L 553.047,663.134 L 551.491,662.917 L 549.954,662.844 L 548.398,662.989 L 546.881,663.423 L 545.325,663.93 L 543.808,664.727 L 542.311,665.74 L 540.834,667.043 L 539.376,668.346 L 537.958,670.084 L 536.579,671.749 L 535.22,673.776 L 533.88,676.02 L 532.6,678.337 L 531.359,680.799 L 530.177,683.405 L 529.074,686.373 L 527.97,689.342 L 526.946,692.455 L 526.001,695.712 L 525.094,699.115 L 524.267,702.663 L 523.479,706.355 L 522.79,709.975 L 522.14,713.812 L 521.627,717.721 L 521.135,721.775 L 520.702,725.757 L 520.386,729.884 L 520.15,734.011 L 519.953,738.137 L 519.835,742.191 L 519.835,746.535 L 519.894,750.662 L 520.012,754.789 L 520.229,758.915"/>
      <path style="fill: none; stroke-opacity: 1; stroke-width: 0.02; stroke: #6c8f93" d="M 513.256 891.257 L 513.216,894.949 L 513.315,898.714 L 513.453,902.334 L 513.689,906.171 L 513.984,909.791 L 514.418,913.483 L 514.851,917.103 L 515.403,920.65 L 516.013,924.053 L 516.703,927.456 L 517.451,930.786 L 518.259,933.971 L 519.165,937.012 L 520.15,940.125 L 521.135,942.804 L 522.199,945.627 L 523.361,948.234 L 524.543,950.767 L 525.804,953.084 L 527.104,955.256 L 528.424,957.283 L 529.802,959.093 L 531.221,960.903 L 532.698,962.351 L 534.176,963.727 L 535.653,964.957 L 537.189,965.971 L 538.746,966.767 L 540.302,967.346 L 541.897,967.781 L 543.473,968.143 L 545.089,968.143 L 546.645,968.143 L 548.24,967.708 L 549.816,967.274 L 551.373,966.622 L 552.909,965.681 L 554.446,964.74 L 555.982,963.437 L 557.44,962.061 L 558.878,960.469 L 560.276,958.731 L 561.636,956.849 L 562.995,954.822 L 564.275,952.577 L 565.477,950.261"/>
      <path style="fill: none; stroke-opacity: 1; stroke-width: 0.02; stroke: #6c8f93" d="M 670.786 764.779 L 673.485,753.123 L 673.938,749.938 L 674.312,746.825 L 674.667,743.639 L 674.883,740.381 L 675.041,737.196 L 675.12,734.011 L 675.139,730.68 L 675.041,727.35 L 674.923,724.092 L 674.667,720.834 L 674.391,717.721 L 674.017,714.536 L 673.583,711.423 L 673.071,708.31 L 672.46,705.341 L 671.81,702.373 L 671.101,699.55 L 670.313,696.798 L 669.466,694.12 L 668.521,691.441 L 667.575,689.052 L 666.551,686.59 L 665.448,684.346 L 664.325,682.174 L 663.143,680.147 L 661.902,678.337 L 660.641,676.6 L 659.361,675.079 L 658.021,673.559 L 656.642,672.328 L 655.224,671.097 L 653.825,670.156 L 652.368,669.288 L 650.91,668.708 L 649.413,668.274 L 647.936,667.912 L 646.438,667.622 L 644.922,667.622 L 643.444,667.912 L 641.947,668.274 L 640.47,668.708 L 639.012,669.288 L 637.574,670.156 L 636.136,671.097"/>
      <path style="fill: none; stroke-opacity: 1; stroke-width: 0.02; stroke: #6c8f93" d="M 676.834 855.638 L 680.951,843.837 L 681.561,840.362 L 682.132,836.742 L 682.566,833.195 L 682.94,829.502 L 683.236,825.882 L 683.413,822.263 L 683.492,818.498 L 683.492,814.878 L 683.334,811.041 L 683.157,807.421 L 682.881,803.729 L 682.467,800.109 L 681.975,796.562 L 681.443,793.014 L 680.773,789.612 L 680.005,786.209 L 679.138,782.951 L 678.252,779.766 L 677.267,776.652 L 670.786,764.779"/>
      <path style="fill: none; stroke-opacity: 1; stroke-width: 0.02; stroke: #6c8f93" d="M 638.48 987.69 L 639.938,989.283 L 641.415,990.803 L 642.893,991.889 L 644.409,992.685 L 645.907,993.265 L 647.443,993.554 L 648.96,993.699 L 650.457,993.265 L 651.993,992.83 L 653.51,991.961 L 654.988,990.875 L 656.445,989.5 L 657.923,987.835 L 659.38,986.025 L 660.759,983.853 L 662.099,981.536 L 663.458,978.858 L 664.739,976.034 L 665.999,972.921 L 667.201,969.518 L 668.363,965.971 L 669.466,962.279 L 670.491,958.442 L 671.495,954.17 L 672.441,949.899 L 673.307,945.555 L 674.076,940.777 L 674.824,936.071 L 675.494,931.293 L 676.105,926.297 L 676.637,921.085 L 677.09,915.872 L 677.424,910.659 L 677.74,905.447 L 677.976,900.017 L 678.114,894.66 L 678.193,889.23 L 678.193,883.728 L 678.094,878.37 L 677.917,872.941 L 677.7,867.511 L 677.365,862.226 L 676.991,857.086"/>
      <path style="fill: none; stroke-opacity: 1; stroke-width: 0.02; stroke: #6c8f93" d="M 521.43 761.666 L 520.347,762.028 L 519.283,762.463 L 518.2,763.114 L 517.156,763.983 L 516.151,764.924 L 515.107,766.082 L 514.103,767.458 L 513.137,768.906 L 512.212,770.571 L 511.286,772.381 L 510.36,774.263 L 509.513,776.29 L 508.685,778.462 L 507.897,780.779 L 507.149,783.313 L 506.42,785.774 L 505.731,788.453 L 505.12,791.349 L 504.509,794.173 L 504.017,797.068 L 503.524,800.109 L 503.052,803.222 L 502.658,806.408 L 502.323,809.593 L 502.008,812.923 L 501.791,816.326 L 501.574,819.656 L 501.456,823.059 L 501.377,826.462 L 501.377,829.937 L 501.377,833.267 L 501.495,836.742 L 501.614,840.217 L 501.791,843.475 L 502.047,846.805 L 502.323,850.135 L 502.658,853.393 L 503.052,856.579 L 503.524,859.692 L 504.017,862.805 L 504.568,865.701 L 505.14,868.524 L 505.77,871.42 L 506.42,874.027 L 507.149,876.56 L 507.917,879.022 L 508.705,881.266 L 509.552,883.511 L 510.419,885.538 L 511.286,887.42 L 512.212,889.23 L 513.196,890.967"/>
      <path style="fill: none; stroke-opacity: 1; stroke-width: 0.02; stroke: #6c8f93" d="M 557.893 947.582 L 558.188,951.491 L 558.582,955.473 L 559.075,959.383 L 559.725,963.22 L 560.414,967.057 L 561.261,970.677 L 562.207,974.296 L 563.231,977.916 L 564.413,981.319 L 565.634,984.722 L 566.954,987.835 L 568.392,991.02 L 569.889,993.988 L 571.485,996.884 L 573.179,999.563 L 574.932,1002.1 L 576.705,1004.41 L 578.616,1006.66 L 580.527,1008.69 L 582.536,1010.57 L 584.565,1012.3 L 586.673,1013.9 L 588.82,1015.2 L 590.987,1016.21 L 593.193,1017.3 L 595.399,1017.95 L 597.645,1018.6 L 599.93,1018.82 L 602.175,1019.11 L 604.441,1019.04 L 606.706,1018.82 L 608.952,1018.24 L 611.178,1017.73 L 613.384,1016.79 L 615.59,1015.71 L 617.757,1014.55 L 619.845,1013.17 L 621.933,1011.44 L 623.962,1009.77 L 625.912,1007.74 L 627.843,1005.57 L 629.695,1003.33 L 631.467,1000.79 L 633.181,998.26 L 634.816,995.364 L 636.372,992.613 L 637.85,989.427 L 639.209,986.314 L 640.529,983.057 L 641.671,979.726 L 642.774,976.106 L 643.759,972.559 L 644.646,968.867 L 645.454,965.174"/>
    </g>
    <text font-size="12.7998" style="fill: #000000; fill-opacity: 1; stroke: none;text-anchor:start;font-family:sans-serif;font-style:normal;font-weight:normal" x="830" y="338.681">
      <tspan x="830" y="338.681"></tspan>
    </text>
    <text font-size="12.7998" style="fill: #000000; fill-opacity: 1; stroke: none;text-anchor:start;font-family:sans-serif;font-style:normal;font-weight:normal" x="889" y="373.681">
      <tspan x="889" y="373.681"></tspan>
    </text>
    <rect style="fill: #ffffff; fill-opacity: 1; stroke-opacity: 1; stroke-width: 2; stroke: #000000" x="326.767" y="754.543" width="135" height="63.8999" rx="0" ry="0"/>
    <g>
      <path style="fill: #a5a585; fill-opacity: 1; stroke: none" fill-rule="evenodd" d="M 272.599 729.162 L 272.56,728.664 L 272.451,728.174 L 272.265,727.684 L 272.008,727.201 L 271.689,726.719 L 271.292,726.244 L 270.825,725.777 L 270.288,725.318 L 269.682,724.867 L 269.012,724.439 L 268.281,724.011 L 267.495,723.591 L 266.632,723.194 L 265.721,722.813 L 264.756,722.447 L 263.729,722.097 L 262.663,721.77 L 261.543,721.459 L 260.384,721.171 L 259.17,720.899 L 257.933,720.642 L 256.649,720.417 L 255.334,720.199 L 254.004,720.02 L 252.634,719.864 L 251.242,719.732 L 249.841,719.615 L 248.417,719.537 L 246.986,719.467 L 245.546,719.421 L 244.107,719.421 L 244.107,719.421 L 242.66,719.421 L 241.22,719.467 L 239.789,719.537 L 238.365,719.615 L 236.964,719.732 L 235.571,719.864 L 234.21,720.02 L 232.872,720.199 L 231.557,720.417 L 230.273,720.642 L 229.036,720.899 L 227.83,721.171 L 226.67,721.459 L 225.55,721.77 L 224.476,722.097 L 223.449,722.447 L 222.492,722.813 L 221.574,723.194 L 220.718,723.591 L 219.925,724.011 L 219.193,724.439 L 218.524,724.867 L 217.917,725.318 L 217.38,725.777 L 216.914,726.244 L 216.517,726.719 L 216.198,727.201 L 215.941,727.684 L 215.754,728.174 L 215.653,728.664 L 215.614,729.162 L 215.614,729.162 L 215.653,729.66 L 215.754,730.142 L 215.941,730.64 L 216.198,731.123 L 216.517,731.605 L 216.914,732.08 L 217.38,732.546 L 217.917,733.005 L 218.524,733.449 L 219.193,733.885 L 219.925,734.313 L 220.718,734.733 L 221.574,735.13 L 222.492,735.511 L 223.449,735.877 L 224.476,736.227 L 225.55,736.553 L 226.67,736.865 L 227.83,737.153 L 229.036,737.425 L 230.273,737.682 L 231.557,737.907 L 232.872,738.117 L 234.21,738.304 L 235.571,738.46 L 236.964,738.592 L 238.365,738.701 L 239.789,738.786 L 241.22,738.849 L 242.66,738.895 L 244.107,738.903 L 244.107,738.903 L 245.546,738.895 L 246.986,738.849 L 248.417,738.786 L 249.841,738.701 L 251.242,738.592 L 252.634,738.46 L 254.004,738.304 L 255.334,738.117 L 256.649,737.907 L 257.933,737.682 L 259.17,737.425 L 260.384,737.153 L 261.543,736.865 L 262.663,736.553 L 263.729,736.227 L 264.756,735.877 L 265.721,735.511 L 266.632,735.13 L 267.495,734.733 L 268.281,734.313 L 269.012,733.885 L 269.682,733.449 L 270.288,733.005 L 270.825,732.546 L 271.292,732.08 L 271.689,731.605 L 272.008,731.123 L 272.265,730.64 L 272.451,730.142 L 272.56,729.66 L 272.599,729.162z"/>
      <path style="fill: none; stroke-opacity: 1; stroke-width: 0.02; stroke: #494936" d="M 272.265 729.006 L 272.226,728.508 L 272.125,728.034 L 271.946,727.551 L 271.697,727.077 L 271.362,726.594 L 270.958,726.135 L 270.514,725.668 L 269.969,725.233 L 269.37,724.789 L 268.709,724.353 L 267.978,723.941 L 267.192,723.529 L 266.344,723.14 L 265.449,722.751 L 264.469,722.401 L 263.449,722.058 L 262.383,721.731 L 261.278,721.428 L 260.127,721.148 L 258.929,720.876 L 257.684,720.634 L 256.416,720.409 L 255.108,720.199 L 253.786,720.02 L 252.432,719.864 L 251.039,719.74 L 249.647,719.615 L 248.23,719.545 L 246.814,719.483 L 245.367,719.444 L 243.936,719.421 L 243.936,719.421 L 242.504,719.444 L 241.072,719.483 L 239.641,719.545 L 238.24,719.615 L 236.84,719.74 L 235.455,719.864 L 234.093,720.02 L 232.763,720.199 L 231.463,720.409 L 230.195,720.634 L 228.95,720.876 L 227.752,721.148 L 226.608,721.428 L 225.488,721.731 L 224.414,722.058 L 223.403,722.401 L 222.438,722.751 L 221.543,723.14 L 220.687,723.529 L 219.894,723.941 L 219.178,724.353 L 218.516,724.789 L 217.902,725.233 L 217.373,725.668 L 216.914,726.135 L 216.517,726.594 L 216.19,727.077 L 215.933,727.551 L 215.754,728.034 L 215.653,728.508 L 215.614,729.006 L 215.614,729.006 L 215.653,729.489 L 215.754,729.963 L 215.933,730.453 L 216.19,730.928 L 216.517,731.403 L 216.914,731.87 L 217.373,732.329 L 217.902,732.772 L 218.516,733.208 L 219.178,733.651 L 219.894,734.071 L 220.687,734.468 L 221.543,734.865 L 222.438,735.246 L 223.403,735.604 L 224.414,735.947 L 225.488,736.266 L 226.608,736.577 L 227.752,736.857 L 228.95,737.129 L 230.195,737.378 L 231.463,737.596 L 232.763,737.798 L 234.093,737.977 L 235.455,738.133 L 236.84,738.265 L 238.24,738.382 L 239.641,738.46 L 241.072,738.522 L 242.504,738.561 L 243.936,738.576 L 243.936,738.576 L 245.367,738.561 L 246.814,738.522 L 248.23,738.46 L 249.647,738.382 L 251.039,738.265 L 252.432,738.133 L 253.786,737.977 L 255.108,737.798 L 256.416,737.596 L 257.684,737.378 L 258.929,737.129 L 260.127,736.857 L 261.278,736.577 L 262.383,736.266 L 263.449,735.947 L 264.469,735.604 L 265.449,735.246 L 266.344,734.865 L 267.192,734.468 L 267.978,734.071 L 268.709,733.651 L 269.37,733.208 L 269.969,732.772 L 270.514,732.329 L 270.958,731.87 L 271.362,731.403 L 271.697,730.928 L 271.946,730.453 L 272.125,729.963 L 272.226,729.489 L 272.265,729.006"/>
      <path style="fill: #a5a585; fill-opacity: 1; stroke: none" fill-rule="evenodd" d="M 215.614 708.816 L 215.614,729.333 L 272.265,729.333 L 272.265,708.816 L 215.614,708.816z"/>
      <path style="fill: #c9c9b6; fill-opacity: 1; stroke: none" fill-rule="evenodd" d="M 272.599 708.644 L 272.56,708.139 L 272.451,707.649 L 272.265,707.166 L 272.008,706.684 L 271.689,706.194 L 271.292,705.719 L 270.825,705.244 L 270.288,704.801 L 269.682,704.357 L 269.012,703.906 L 268.281,703.494 L 267.495,703.074 L 266.632,702.669 L 265.721,702.296 L 264.756,701.93 L 263.729,701.572 L 262.663,701.245 L 261.543,700.942 L 260.384,700.646 L 259.17,700.374 L 257.933,700.125 L 256.649,699.899 L 255.334,699.689 L 254.004,699.502 L 252.634,699.347 L 251.242,699.214 L 249.841,699.105 L 248.417,699.02 L 246.986,698.95 L 245.546,698.911 L 244.107,698.903 L 244.107,698.903 L 242.66,698.911 L 241.22,698.95 L 239.789,699.02 L 238.365,699.105 L 236.964,699.214 L 235.571,699.347 L 234.21,699.502 L 232.872,699.689 L 231.557,699.899 L 230.273,700.125 L 229.036,700.374 L 227.83,700.646 L 226.67,700.942 L 225.55,701.245 L 224.476,701.572 L 223.449,701.93 L 222.492,702.296 L 221.574,702.669 L 220.718,703.074 L 219.925,703.494 L 219.193,703.906 L 218.524,704.357 L 217.917,704.801 L 217.38,705.244 L 216.914,705.719 L 216.517,706.194 L 216.198,706.684 L 215.941,707.166 L 215.754,707.649 L 215.653,708.139 L 215.614,708.644 L 215.614,708.644 L 215.653,709.135 L 215.754,709.633 L 215.941,710.107 L 216.198,710.605 L 216.517,711.08 L 216.914,711.562 L 217.38,712.029 L 217.917,712.48 L 218.524,712.932 L 219.193,713.367 L 219.925,713.795 L 220.718,714.208 L 221.574,714.604 L 222.492,714.986 L 223.449,715.359 L 224.476,715.701 L 225.55,716.036 L 226.67,716.347 L 227.83,716.635 L 229.036,716.907 L 230.273,717.164 L 231.557,717.382 L 232.872,717.6 L 234.21,717.779 L 235.571,717.934 L 236.964,718.075 L 238.365,718.176 L 239.789,718.269 L 241.22,718.331 L 242.66,718.37 L 244.107,718.386 L 244.107,718.386 L 245.546,718.37 L 246.986,718.331 L 248.417,718.269 L 249.841,718.176 L 251.242,718.075 L 252.634,717.934 L 254.004,717.779 L 255.334,717.6 L 256.649,717.382 L 257.933,717.164 L 259.17,716.907 L 260.384,716.635 L 261.543,716.347 L 262.663,716.036 L 263.729,715.701 L 264.756,715.359 L 265.721,714.986 L 266.632,714.604 L 267.495,714.208 L 268.281,713.795 L 269.012,713.367 L 269.682,712.932 L 270.288,712.48 L 270.825,712.029 L 271.292,711.562 L 271.689,711.08 L 272.008,710.605 L 272.265,710.107 L 272.451,709.633 L 272.56,709.135 L 272.599,708.644z"/>
      <path style="fill: none; stroke-opacity: 1; stroke-width: 0.02; stroke: #494936" d="M 272.265 708.489 L 272.226,707.991 L 272.125,707.516 L 271.946,707.042 L 271.697,706.559 L 271.362,706.069 L 270.958,705.61 L 270.514,705.167 L 269.969,704.707 L 269.37,704.272 L 268.709,703.828 L 267.978,703.424 L 267.192,703.011 L 266.344,702.615 L 265.449,702.249 L 264.469,701.883 L 263.449,701.549 L 262.383,701.222 L 261.278,700.911 L 260.127,700.623 L 258.929,700.358 L 257.684,700.117 L 256.416,699.891 L 255.108,699.689 L 253.786,699.502 L 252.432,699.347 L 251.039,699.214 L 249.647,699.105 L 248.23,699.02 L 247.756,698.997 L 240.115,698.997 L 239.641,699.02 L 238.24,699.105 L 236.84,699.214 L 235.455,699.347 L 234.093,699.502 L 232.763,699.689 L 231.463,699.891 L 230.195,700.117 L 228.95,700.358 L 227.752,700.623 L 226.608,700.911 L 225.488,701.222 L 224.414,701.549 L 223.403,701.883 L 222.438,702.249 L 221.543,702.615 L 220.687,703.011 L 219.894,703.424 L 219.178,703.828 L 218.516,704.272 L 217.902,704.707 L 217.373,705.167 L 216.914,705.61 L 216.517,706.069 L 216.19,706.559 L 215.933,707.042 L 215.754,707.516 L 215.653,707.991 L 215.614,708.489 L 215.614,708.489 L 215.653,708.963 L 215.754,709.454 L 215.933,709.936 L 216.19,710.411 L 216.517,710.885 L 216.914,711.352 L 217.373,711.803 L 217.902,712.262 L 218.516,712.698 L 219.178,713.134 L 219.894,713.554 L 220.687,713.951 L 221.543,714.34 L 222.438,714.729 L 223.403,715.087 L 224.414,715.421 L 225.488,715.74 L 226.608,716.052 L 227.752,716.332 L 228.95,716.604 L 230.195,716.861 L 231.463,717.063 L 232.763,717.281 L 234.093,717.452 L 235.455,717.615 L 236.84,717.756 L 238.24,717.864 L 239.641,717.95 L 241.072,718.005 L 242.504,718.036 L 243.936,718.059 L 243.936,718.059 L 245.367,718.036 L 246.814,718.005 L 248.23,717.95 L 249.647,717.864 L 251.039,717.756 L 252.432,717.615 L 253.786,717.452 L 255.108,717.281 L 256.416,717.063 L 257.684,716.861 L 258.929,716.604 L 260.127,716.332 L 261.278,716.052 L 262.383,715.74 L 263.449,715.421 L 264.469,715.087 L 265.449,714.729 L 266.344,714.34 L 267.192,713.951 L 267.978,713.554 L 268.709,713.134 L 269.37,712.698 L 269.969,712.262 L 270.514,711.803 L 270.958,711.352 L 271.362,710.885 L 271.697,710.411 L 271.946,709.936 L 272.125,709.454 L 272.226,708.963 L 272.265,708.489"/>
      <path style="fill: none; stroke-opacity: 1; stroke-width: 0.02; stroke: #000000" d="M 215.614 708.489 L 215.614,728.991"/>
      <path style="fill: none; stroke-opacity: 1; stroke-width: 0.02; stroke: #000000" d="M 272.265 708.489 L 272.265,728.991"/>
    </g>
    <text font-size="12.8" style="fill: #000000; fill-opacity: 1; stroke: none;text-anchor:middle;font-family:sans-serif;font-style:normal;font-weight:normal" x="243.9" y="707.098">
      <tspan x="243.9" y="707.098">Volume</tspan>
      <tspan x="243.9" y="723.098">EmptyDir</tspan>
      <tspan x="243.9" y="739.098">Socket Unix</tspan>
    </text>
    <polyline style="fill: none; stroke-opacity: 1; stroke-width: 2; stroke: #0000ff" points="326.216,699.671 299.408,699.671 299.408,718.899 272.599,718.899 "/>
    <polyline style="fill: none; stroke-opacity: 1; stroke-width: 2; stroke: #0000ff" points="326.767,786.493 299.683,786.493 299.683,718.899 272.599,718.899 "/>
    <text font-size="12.7998" style="fill: #000000; fill-opacity: 1; stroke: none;text-anchor:start;font-family:sans-serif;font-style:normal;font-weight:normal" x="219.928" y="723.574">
      <tspan x="219.928" y="723.574"></tspan>
    </text>
    <text font-size="12.7998" style="fill: #000000; fill-opacity: 1; stroke: none;text-anchor:start;font-family:sans-serif;font-style:normal;font-weight:normal" x="365.84" y="791.078">
      <tspan x="365.84" y="791.078">DB Router </tspan>
      <tspan x="365.84" y="807.078">Unix - TLS</tspan>
      <tspan x="365.84" y="823.078"></tspan>
    </text>
    <rect style="fill: #ffffff; fill-opacity: 1; stroke-opacity: 1; stroke-width: 2; stroke: #000000" x="714.054" y="767.285" width="135" height="63.8999" rx="0" ry="0"/>
    <text font-size="12.7998" style="fill: #000000; fill-opacity: 1; stroke: none;text-anchor:start;font-family:sans-serif;font-style:normal;font-weight:normal" x="753.822" y="797.116">
      <tspan x="753.822" y="797.116">DB Router</tspan>
      <tspan x="753.822" y="813.116">Unix - TLS</tspan>
    </text>
    <text font-size="12.7998" style="fill: #000000; fill-opacity: 1; stroke: none;text-anchor:start;font-family:sans-serif;font-style:normal;font-weight:normal" x="394.267" y="786.493">
      <tspan x="394.267" y="786.493"></tspan>
    </text>
  </g>
  <g id="Nouveau calque 1"/>
</svg>
