<svg xmlns="http://www.w3.org/2000/svg" viewBox="0 0 131.845 75.057">
    <defs>
        <style>
            .cls-1,.cls-2{fill-rule:evenodd}.cls-1{fill:url(#linear-gradient)}.cls-2{fill:url(#linear-gradient-2)}.cls-3{fill:#909399}
        </style>
        <linearGradient id="linear-gradient" x2="1" y1=".5" y2=".5" gradientUnits="objectBoundingBox">
            <stop offset="0" stop-color="#0093d6"/>
            <stop offset="1" stop-color="#a1daf8"/>
        </linearGradient>
        <linearGradient id="linear-gradient-2" x2="1" y1=".5" y2=".5" gradientUnits="objectBoundingBox">
            <stop offset="0" stop-color="#64b445"/>
            <stop offset=".12" stop-color="#6db84a"/>
            <stop offset=".32" stop-color="#85c257"/>
            <stop offset=".57" stop-color="#add36e"/>
            <stop offset=".87" stop-color="#e4e98c"/>
            <stop offset="1" stop-color="#fff59b"/>
        </linearGradient>
    </defs>
    <g id="uepal-logo" transform="translate(0 -.001)">
        <g id="Calque_2" data-name="Calque 2" transform="translate(0 .001)">
            <path id="Tracé_1" d="M314.074.637a1.185 1.185 0 0 1-.348-.053c.323-.03.448-.028.812-.063 1.645-.16 3.727-.35 5.169-.392 1.34-.052 1.64-.043 2.7-.1-.458-.044-1.164-.037-3.661.021-1.917.068-4.6.338-6.71.625-.677.091-2.316.382-2.826.474-1.675.305 4.096-.505 4.864-.512zm4.746-.381c-1.078.043-3.727.29-4.382.378a17.465 17.465 0 0 0 1.849-.1c.559-.043 1.044-.112 2.12-.185.8-.053 2.856-.127 2.714-.135-.742-.031-1.221-.002-2.301.042zM251.119 36.8a85.329 85.329 0 0 1 8.114-9.374 143.648 143.648 0 0 1 12.245-10.058c-.782.5-3.653 2.6-5.679 4.28s-7.258 6.191-8.531 7.609a82.049 82.049 0 0 0-6.149 7.543zm0 0c-.161.219-.285.392-.364.511q.184-.263.364-.511zm8.249-10.012a118.466 118.466 0 0 1 9.5-7.881c1.962-1.421 7.562-4.978 8.764-5.615.915-.536 5.326-2.937 6.975-3.841-1.133.507-4.611 2.493-6.57 3.518s-8.055 5.023-9.691 6.189-6.871 5.526-8.972 7.485c-1.876 1.747-1.231 1.277-.005.141zM314.192.758c-.984.068-2.977.275-4.29.451s-3.518.852-6.923 1.725c-.435.16-.049-.068.464-.2.926-.248 1.484-.443 2-.562.685-.158 1.869-.553 3.044-.765a67.258 67.258 0 0 0-6.792 1.463 98.592 98.592 0 0 0-10.623 4.03c-.4.177-2.939 1.185-.975.752.127.44-.779.362-1.427.685-.239.119-.556.142-.609.482-.154.072-.176-.467-.328-.4a52.59 52.59 0 0 0-.531.252c-1.731.825-2.532 1.245-4.486 2.293s-5.206 2.865-7.836 4.556a1.984 1.984 0 0 0-.4.3c-.039.085.078.223.005.323-.126.174-.373-.145-.6.03-.116.091.2.164.082.332-.058.082-.267.005-.289.18s.108.154.02.257a5.107 5.107 0 0 0-.888.609c-.829.73-.451.283-.44-.017.135-.2.551-.418.645-.541.48-.65.064-.265-.392.035-.527.347-1.3.858-1.546 1.04-.077.045-2.072 1.5-2.617 1.937s-1.4 1.1-1.868 1.448c-.2.148.271-.018-.139.35-.319.193-.068-.227-.252-.05-.087.083-.41.349-.623.5-.175.129-.039.211-.2.385-.139.154-.154-.079-.331.053-.062.047-.591.442-.812.628s-1.062.915-1.657 1.438c-.1.086 0 .2-.148.338-.1.091-.229.012-.332.092-.135.106.057.135-.037.24-.135.148-.292.068-.419.173s-.582.564-.7.653c-.075.055-1.513 1.425-1.593 1.5s-.03.2-.116.263-.107 0-.19.068c-.363.32.079-.055-.346.315-.124.185-.37.291-.244.382-.424.526-.219.1-.279.155-.118.112-.362.338-.417.4-.027.2-.184.2-.235.253-.068.068-.2.2-.253.26-.087.092-1.229 1.375-1.291 1.427s.008.116-.028.149c-.072.062-.151-.1-.124.039-.062.035.028.078-.058.155-.17.15-.106-.012-.284.188-.335.373-.522.617-.94 1.082a4.577 4.577 0 0 0-.758.984c-.053.053-.106.053-.16.106-.1.1-.08.29-.212.362-.173.015-.215.166-.271.342-.037.114-.2.13-.274.225-.319.421-.873 1.12-1.053 1.353-.491.639-.75.957-1.111 1.469.089.007.1.013.38-.228a4.463 4.463 0 0 1-.536.646 9.025 9.025 0 0 0-.8 1.254c-.223.281.132-.53-.021-.333a2.6 2.6 0 0 0-.349.718c-.116.053-.212.131-.2.242s-.13.183-.22.2a2.59 2.59 0 0 0-.484.9c.009.111-.2.252-.374.429a31.85 31.85 0 0 0-2.21 3.828c-.406.778-.808 1.5-1.222 2.233a5.762 5.762 0 0 1-.467.968c-.119.141-.087.327-.173.492-.126.235-.274.506-.406.737-.179.308-.187.62-.338.923a13.326 13.326 0 0 0-.428 1.312c-.209.551-.513.917-.676 1.434a5.75 5.75 0 0 1-.264.7c-.155.338-.283 1.024-.391 1.335a16.7 16.7 0 0 0-.837 2.318c-.28.576.013.941-.338 1.061-.2.29-.091.823-.215 1.162-.143.39-.235.632-.363.984-.1.288.046.664-.073.947a5.4 5.4 0 0 0-.223.583c-.039.129.232.309.2.421a2.238 2.238 0 0 0-.175.615c.006.1-.166.23-.193.311a4.62 4.62 0 0 0-.183.648 24.031 24.031 0 0 0 .024 6.1 4.366 4.366 0 0 0 1.471 2.977c.054.016.083.135-.03.277-.135.22.227.506.635.785a3.2 3.2 0 0 0 1.544.348c.526-.039.4-.344.6-.343.244.11.4 0 .415-.175s.165-.271.43-.282c.271-.085.271-.338.4-.787.208-.677-.693-1.34-.812-1.836a8.765 8.765 0 0 1-.135-2.085c.049-.474.169-2.061.275-2.62a9.331 9.331 0 0 1 .375-1.833c.15-.16.026-.3.112-.685s.235-.919.37-1.311c.1-.291.616-1.749.99-3.018.03-.1-.045-.229-.009-.325s.078-.068.114-.16a.932.932 0 0 1 .024-.166 1.617 1.617 0 0 1 .106-.158c.014-.037-.055-.156-.033-.187a1.339 1.339 0 0 0 .181-.338 5.484 5.484 0 0 1 .263-.808c.181-.375.3-.773.478-1.2.086-.176.169-.432.267-.627.03-.06-.041-.193-.01-.254s.11-.056.13-.141-.127-.041-.019-.154c.025-.049.135-.078.161-.127-.072-.332.025-.216.087-.172.06-.043.059-.115.089-.173a5.382 5.382 0 0 1 .356-.963q.235-.5.532-1.184c.037-.068-.1-.173-.06-.242s.168-.018.2-.262c.041-.068.2-.06.173-.195a2.725 2.725 0 0 1 .231-.5c.057-.1.068-.21.127-.314.084-.14.177-.323.249-.453.165-.3.158-.488.333-.8a3.575 3.575 0 0 0 .371-.654 2.789 2.789 0 0 1 .237-.582c.16-.279.254-.554.421-.842.729-1.258 2.066-3.532 3.174-5.022a3.377 3.377 0 0 1 .664-.581.635.635 0 0 0 .231-.764c-.086-.2.229-.28.582-.622.489-.179.361.372.41-.683.006-.135.123.135.223.048a.872.872 0 0 1 .141-.569c.135-.139.335-.158.4-.242a34.892 34.892 0 0 1 2.216-2.909c.186-.233.2-.348-.022-.135a1.661 1.661 0 0 1-.635.331c.714-.844 1.055-1.388 1.376-1.679.184-.166.145.306.207.239q.307-.333.615-.656c-.048-.194.121-.271.247-.311s.148-.2.152-.406c.068-.143.171-.16.271-.265.05-.051.266-.182.316-.233l.25-.251c.6-.728.1-.143.713-.7.135-.124.087-.412.221-.53.095-.007.283-.432.394-.334s.373-.377.465-.455c.286-.245.821-.833 1.556-1.624.12-.129.284-.388.446-.318.1-.107.112-.278.209-.38a14.506 14.506 0 0 1 1.2-1.193c.079-.172.549-.294.027-.3-.235 0 1.141-1.2 1.411-1.232.169-.022.073.355.237.342.129-.009.367-.271.485-.349a5.963 5.963 0 0 0 .937-1.091 29.273 29.273 0 0 1 2.373-1.827c.152-.1.284-.028.319-.166.438-.35 1.628-1.421 2.021-1.77a8.138 8.138 0 0 0 .933-.846c.217-.271-.152-.089.334-.639.626-.378.175-.254.524-.175.1.2.083.028.241.021a1.164 1.164 0 0 0 .524-.261c.458-.372.9-.72 1.2-.982.112-.1.252-.221.406-.353s.055-.2.213-.317c.059-.043.112.083.217.035.074-.035.118-.172.2-.244a.9.9 0 0 1 .271-.124 8.811 8.811 0 0 0 1.4-1c-.014-.125-.4.314-.467.1.275-.177.16-.246.292-.323.668-.388 1.082-.84 2.042-1.409-.218.219 1.15-.643-.469.492-.541.418-.859.618-.819.691a8.006 8.006 0 0 0 1.3-.735 13.121 13.121 0 0 1 1.7-1.311 13.9 13.9 0 0 0 1.4-1 1.456 1.456 0 0 1 .917-.306c.173.044.744-.568 1.135-.917a3.718 3.718 0 0 1 1.267-.7 3.67 3.67 0 0 0 1-.524 1.436 1.436 0 0 1 .7-.306 4.277 4.277 0 0 0 1.136-.655 10.772 10.772 0 0 0 1.136-.787c.89-.573.519-.309.664-.183a2.944 2.944 0 0 1 .645-.431 8.681 8.681 0 0 1 1.3-.365 4.146 4.146 0 0 0 1.507-.851 1.024 1.024 0 0 1 .983-.327c.327.066.656-.459 1.31-.786a3.316 3.316 0 0 1 1.641-.59 6.359 6.359 0 0 0 2.293-1.179c.331-.262 1.114-.262 1.507-.458a9.574 9.574 0 0 1 2.165-.787 6.453 6.453 0 0 0 1.835-.785 9.407 9.407 0 0 1 2.1-.72c.863-.208 3.871-.734 2.888-.669zm-20.156 7.936c-.007.006 0 .006 0 0zm-40.492 24.4c.829-1.054 3.3-3.7 4.069-4.668-.14.168-1.624 1.775-3.291 3.591a66.891 66.891 0 0 0-5.184 7.21c-.721 1.163 2.672-4.163 4.405-6.136zm-9.184 14.43c-.38.762-2.173 4.558-2.985 6.822a22.318 22.318 0 0 0-1.082 3.932 51.088 51.088 0 0 1 3.076-8.456 15.309 15.309 0 0 0 .99-2.301z" class="cls-1" data-name="Tracé 1" transform="translate(-222.787 -.001)"/>
            <path id="Tracé_2" d="M37.8 186.361a.323.323 0 0 1 .068.012c.056.006.041.002-.068-.012zm81.02-25.27c-1.229 1.624-5.4 6.449-8.6 8.148-.241.2-1.267.5-1.4.7s-.459.764-.677.852a15.143 15.143 0 0 0-1.441.568c-.24.154-.917.5-1.07.589a2.521 2.521 0 0 0-.655.283 9.163 9.163 0 0 1-1.353.808 8.628 8.628 0 0 0-1.266.546c-.2.153-1.135.633-1.332.744a6.911 6.911 0 0 1-.829.524c-.349.153-2.337 1-2.469 1.114s-1.222.5-1.4.59-2.528 1.114-3.028 1.223c-.241.175-.394.415-.546.394s-.24-.153-.349-.131a2.327 2.327 0 0 0-.722.327c-.132.131-.922.093-1.244.219-2.406.94-8.563 2.791-6.683 2.227a9.381 9.381 0 0 1-1.637.525 1.913 1.913 0 0 0-.908.165c-.349.131-.29 0-.141.228.081.135-.068.152-.284.2s-.348.152-.568.087a4.591 4.591 0 0 0-1.026.044.348.348 0 0 1-.153.262.812.812 0 0 1-.5.068 3.735 3.735 0 0 0-.918.2c-.393.129-1.31.349-1.506.415.072.02-.614.143-.562.2.1.108.957-.107 1.009-.089.894-.265.961-.281.835-.158a5.34 5.34 0 0 1-1.032.3 8.932 8.932 0 0 1-1.027.251c-.2 0-.6 0-.666.087.171.1-.359-.043-.153-.153.087-.068-.153.022-.48.088s-.764.349-1.114.392-1.07.219-1.285.262-.154.2-.371.262a2.956 2.956 0 0 1-.873.068c-.218-.022-.317.015-.415-.068-.231-.187.386-.122-1.114.125a4.677 4.677 0 0 0-.774.162c.091.056-.1.128-.187.128s-.554.118-.334-.05c-.259.06-.8.175-1.015.2s-1.791.327-2.037.356a2.922 2.922 0 0 1-.727.072 12.545 12.545 0 0 1-2.745.5 7.056 7.056 0 0 0-.808.106c-.262.066-.328.283-.568.2a1.075 1.075 0 0 0-.583-.041c-.24.022-.225-.047-.465.062a2.958 2.958 0 0 0-.744.35.413.413 0 0 1-.3.144c-.077-.084.114-.158.144-.253.338-.183-.365-.153-.649-.068a1.741 1.741 0 0 1-.617.131c-.135-.047-.045-.094-1.421.068-.284.043-.306.131-.744.2s-.873.131-1.376.2a9.169 9.169 0 0 0-1.266.068 3.19 3.19 0 0 1-1.07.131 7.888 7.888 0 0 0-1.266-.109 8.778 8.778 0 0 1-1.332.087c-.284-.022-.371-.087-.547-.087s-.555.056-.6-.094a3.208 3.208 0 0 0-.689-.02c-.179.1.079.315.079.315a1.057 1.057 0 0 1-.442 0c0-.108-.034-.242-.165-.262a3.18 3.18 0 0 1-.359-.086c-.45-.018-.812-.009-1.27-.036a1.547 1.547 0 0 0-.315.078c.039.132-1.348.151-1.015-.006.327-.043.647 0 .658-.068-.441-.016-1.305-.108-1.431-.118a47.467 47.467 0 0 0-2.126-.113c-.022.085 1.07.081 1.1.187.175.054.094.109-.036.083-.152 0-.524 0-.812-.016a10.768 10.768 0 0 1-1.251-.173c-.018-.022-.058-.079.051-.091.189-.02.463.068.534.04.054-.018.221 0 .279-.064-.248-.036-.488-.074-.552-.083a1.805 1.805 0 0 0-.449-.045c-.192.029-.279.135-.343.111-.1-.041-.147-.212-.415-.271a38.664 38.664 0 0 1-4.3-.711 2.246 2.246 0 0 1-.976.037 9.775 9.775 0 0 0-1.024-.175c-.141-.021-.1-.1.078-.189-.371-.087-1.639-.459-1.835-.459a14.016 14.016 0 0 1-1.532-.46 4.963 4.963 0 0 0-.677-.262c-.131 0-.218-.241-.349-.284a5.135 5.135 0 0 0-.9-.349 7.133 7.133 0 0 1-1.093-.285 12.874 12.874 0 0 0-1.332-.436c-.131-.043-.786-.567-.939-.609s-.415-.327-.655-.437-.826-.4-1-.5-1.158-.609-1.31-.7-1.048-.677-1.223-.812-.764-.677-.94-.786a4.478 4.478 0 0 1-.609-.546 2.929 2.929 0 0 0-.645-.47 4.976 4.976 0 0 1-.776-.535c-.131-.129-.546-.5-.785-.764s-.941-.761-1.112-.915-.306-.568-.393-.655c-.739-.866-1.769-2.271-2.948-3.975a30.567 30.567 0 0 1-5.132-11.008 3.722 3.722 0 0 0-.393-1.178 11.536 11.536 0 0 1-.459-1.224c-.11-.416.393-.785.415-1.047.014-.176-.153-.153-.175-.415 0-.175.48-.633.546-.786a.412.412 0 0 0-.283-.59c-.328-.128-.219-.306-.219-.415s-.284-.262-.415-.219c-.406-.024-1.049.252-.5-.175a.263.263 0 0 0-.087-.436 3.442 3.442 0 0 0-.633-.068 1.721 1.721 0 0 0-.7-.087c-2.652.696-2.382 2.696-2.557 4.493a24.454 24.454 0 0 0 .459 2.941 59.944 59.944 0 0 0 2.8 7.818 12.655 12.655 0 0 0 .8 1.556c.175.216.241.524.328.609s.5.2.436.349.087.489.175.489.087.153.175.35.327.651.439.868.262.546.393.546.327-.022.284.109a.678.678 0 0 0 .2.59 1.77 1.77 0 0 1 .5.655c.043.2.371.284.48.327s.153.371.262.524.524.2.633.392a6.748 6.748 0 0 0 .48.852c.153.176.609.633.72.808a10.773 10.773 0 0 0 .786.938c.153.152.371.5.5.525a.506.506 0 0 1 .327.305c.022.11.524.35.633.437s.219.022.371.109-.044.306.022.393.568.372.634.481a4.827 4.827 0 0 0 .567.917c.175.131 1.81 1.508 2.116 1.726s1.51 1.1 1.835 1.311c.364.24 1.944 1.158 2.227 1.332s1.9 1.266 2.075 1.421a3.664 3.664 0 0 0 .873.546 2.389 2.389 0 0 1 .808.306.942.942 0 0 0 .459.262 2.086 2.086 0 0 1 .677.306c.109.109.546.2.852.371a9.991 9.991 0 0 0 1.245.7 1.1 1.1 0 0 1 .547.283c.044.087.961.284 1.157.415a2.288 2.288 0 0 0 1.2.109c.175-.087.459.022.371.11s.2.175.459.175 1.421.451 1.7.5a5.309 5.309 0 0 1 1.878.131c.371.131 1.071.48 1.463.568a6.6 6.6 0 0 0 1.3.231 2.35 2.35 0 0 1 .888.007c.284.066 2.664.334 3.036.334s2.082.03 2.41.073 1.645.124 2 .168a6.052 6.052 0 0 0 1.158.068 3.4 3.4 0 0 1 1.07-.241c.218.066.2.219.284.219s.021-.131.2-.152.219.131.306.131a1.8 1.8 0 0 0 .633-.218 4.487 4.487 0 0 1 1.267-.131c.154.005-.983.131-.874.174a2.641 2.641 0 0 0 .772.1c.2-.022.844-.058 1.063-.058s2.533-.306 2.795-.328 1.114-.087 1.245-.131-.507-.06-.411-.076c.262-.044-.844-.081.575-.1.474-.051.762-.093.94-.1a2.723 2.723 0 0 1 .762.005 5.428 5.428 0 0 1-.8.085c-.106.047-.152.059-.392.145a6.468 6.468 0 0 0 1.245-.087 8.8 8.8 0 0 1 1.529-.218c.176.044.5-.044.545-.153s-.56-.109.35-.2a1.642 1.642 0 0 0 .786.11 1.521 1.521 0 0 1 .546-.089 1.816 1.816 0 0 0 .744-.261 3.119 3.119 0 0 1 .961-.131c.239 0 .852.022 1.07 0a3.647 3.647 0 0 0 .808-.2 2.109 2.109 0 0 1 .677-.284c.2 0 1.178-.24 1.375-.262s1.07-.175 1.332-.2.568-.262.808-.24a1.019 1.019 0 0 0 .59-.131c.045-.035.127-.009.212.011a.673.673 0 0 0 .32-.1c.049-.058.1-.09.32-.1a1.984 1.984 0 0 0 .83-.2c.11-.087.219-.262.415-.306a1.691 1.691 0 0 1 .545-.044c.11.022.175-.131.241-.218s.219.022.393.043.437.044.524-.043-.357-.059-.444-.168a24.97 24.97 0 0 0 2-.553c.582-.027-1.1.35-.925.415a1.234 1.234 0 0 0 .633-.11c.055-.018.281-.048.541-.083 1.309-.321 3.352-1.125 3.088-.9a1.481 1.481 0 0 0 .349-.415c.044-.109-.84.338-.753.229a4.764 4.764 0 0 1 1.421-.721 7.73 7.73 0 0 0 2.165-.578c.109-.022.007.084-.167.157a9.8 9.8 0 0 1-1.2.433 3.869 3.869 0 0 0 .721-.109c.154-.065.677-.219.9-.306s.568-.241.7-.306a.609.609 0 0 1 .393-.068c.152.022.5-.262.677-.305s.609-.219.83-.284a3.122 3.122 0 0 1 .59-.2c.651-.227.474.062 1.091-.415a1.432 1.432 0 0 1 .568-.481c.218-.066.94-.175 1.2-.218a5.748 5.748 0 0 0 .824-.307 5.431 5.431 0 0 0 1.227-.524c.354-.244.7-.214.808-.345s.083-.2.279-.332a1.472 1.472 0 0 1 .609-.175c.115-.017.168-.221.262-.375.146-.239-.15-.012.842-.372.24-.088.393-.3.546-.319s.532-.026.6-.157.262-.044.5-.088 1.532-.818 1.725-.873c.153-.044.393-.349.524-.349a2.72 2.72 0 0 0 .808-.394c.175-.131.219-.415.524-.437s.812-.262.852-.436a1.281 1.281 0 0 1 .175-.392c.142-.111.281-.177.392-.263a.89.89 0 0 0 .7-.394c.131-.219.481.044.568-.131l.15-.308a2.917 2.917 0 0 0 .481-.311 1.8 1.8 0 0 0 .338.141c1.272-.744 2.069-1.413 2.216-1.433a1.046 1.046 0 0 1 .308-.406 1.965 1.965 0 0 1 .386-.091 5.231 5.231 0 0 0 .879-.6 3.433 3.433 0 0 0 .664-.436c.219-.131.622-.444.8-.572.219-.152.557-.311.645-.485.184-.041 1.218-.976 1.512-1.093.5-.467-.091.185 1.155-.93.175-.175.58-.43.755-.605s.562-.493.78-.667.836-.7 1.055-.917.667-.549.755-.767-.068-.383.152-.557a6.616 6.616 0 0 0 1.191-1.027 5.955 5.955 0 0 1 .928-1.147c.218-.175.874-.808 1.093-1.026s.524-.744.744-.961.859-.854 1.034-1.073c.2-.248 1.285-1.7 1.331-1.751-.096-.044-.234.201-.411.43zm-2.051 2.838c-.058.068-.112.135-.164.193s-.215.277-.259.321-.21.258-.243.287-.306.321-.338.354-.189.229-.223.265a2.321 2.321 0 0 1-.185.219c-.055.043.076-.12.1-.145s.17-.227.2-.259.153-.171.189-.2.2-.255.222-.284c.1-.109-.088.08-.142.131s-.266.294-.335.357-.193.222-.28.306-.338.357-.372.4-.352.461-.406.524-.324.338-.364.382-.436.459-.491.521-.361.375-.379.393-.338.386-.247.313.48-.459.6-.568.4-.382.474-.453.453-.434.526-.529a3.025 3.025 0 0 1 .338-.406c.091-.068.444-.423.5-.48l.517-.582c.058-.066.239-.313.3-.371s.262-.357.32-.415.262-.327.338-.406.174-.271.2-.3-.068.068-.131.123a2.949 2.949 0 0 1-.26.313zm-83.374 28c-.2-.029-.714-.1-.874-.1s-.509-.091.052.1a43.311 43.311 0 0 0 6.34 1.275c.8.095 3.95.216 5.432.172.1 0 1.251-.023.342-.058-.279-.011-1.7-.083-2.034-.09-.761-.017-2.826-.1-3.423-.175-.338-.041-1.7-.222-2.086-.266-.131-.014-1.208-.181-1.426-.225s-.879-.211-1.055-.254-.947-.215-.947-.215.586.04.513 0c.451.041-.629-.132-.829-.163zm22.585 1.105a93.054 93.054 0 0 0 10.1-1.5 133.562 133.562 0 0 0 22.94-7.581 161.958 161.958 0 0 1-19.52 6.619 98.382 98.382 0 0 1-13.516 2.464zm-6.327.549c.587-.031 2.992-.164 6.331-.549-3.96.41-7.012.587-6.327.55zm-8.862.618a99.945 99.945 0 0 0 19.225-.961 129.793 129.793 0 0 0 12.79-2.94c.833-.262 4.884-1.3 6.909-2.082-.656.131-9.435 2.97-17.387 4.542s-16.379 1.528-21.534 1.44zm69.47-25.05a27.017 27.017 0 0 0 6.049-5.285 39.725 39.725 0 0 0 3.473-4.194 56.244 56.244 0 0 1-6.115 6.7 20.056 20.056 0 0 1-3.4 2.626c-.154.124-.359.33-.003.154zM42.959 193.59a40.528 40.528 0 0 1-6.769-.5c-1.093-.174-4.347-1-4.893-1.179a25.625 25.625 0 0 0 3.195.9 37.887 37.887 0 0 0 3.933.662 40.4 40.4 0 0 0 4.534.117zm-24.913-8.11a50 50 0 0 1-4.106-2.969 31.209 31.209 0 0 0 3.806 2.925 35.652 35.652 0 0 0 3.89 2.3 29.77 29.77 0 0 0-2.6-1.7c-.409-.236-.79-.436-.99-.556z" class="cls-2" data-name="Tracé 2" transform="translate(0 -143.049)"/>
            <path id="Tracé_3" d="M1140.742 852.121l-.514-1.15a5.243 5.243 0 0 1-3.55 1.4c-1.518 0-3.918-.784-3.918-4.506v-7.325h2.939v7.149c0 1.444.661 2.35 2.081 2.35a3.419 3.419 0 0 0 2.228-.955v-8.544h2.938v8.374a11.5 11.5 0 0 0 .221 3.207z" class="cls-3" data-name="Tracé 3" transform="translate(-1056.127 -786.676)"/>
            <path id="Tracé_4" d="M1321.407 843.391a3.068 3.068 0 0 0 3.256 2.914 6.057 6.057 0 0 0 3.012-.808l.71 1.885a7.421 7.421 0 0 1-4.211 1.274c-4.04 0-5.755-2.938-5.755-6.048 0-3.305 1.962-6.047 5.265-6.047 3.134 0 5.19 2.375 5.19 5.974v.857zm2.2-4.627a2.4 2.4 0 0 0-2.277 2.546h4.505a2.357 2.357 0 0 0-2.224-2.547z" class="cls-3" data-name="Tracé 4" transform="translate(-1229.226 -782.965)"/>
            <path id="Tracé_5" d="M1510.133 848.646a5.263 5.263 0 0 1-1.664-.27v5.8h-2.938v-16.843a13.172 13.172 0 0 1 4.506-.784c4.113 0 6.243 2.277 6.243 5.876a5.975 5.975 0 0 1-6.147 6.221zm-.318-9.674a5.15 5.15 0 0 0-1.347.171v6.88a4.193 4.193 0 0 0 1.518.294c2.057 0 3.232-1.494 3.232-3.746a3.23 3.23 0 0 0-3.4-3.6z" class="cls-3" data-name="Tracé 5" transform="translate(-1403.678 -782.956)"/>
            <path id="Tracé_6" d="M1696.659 848.392l-.489-1.029a4.8 4.8 0 0 1-3.355 1.274 3.606 3.606 0 0 1-3.8-3.721c0-2.4 1.885-3.7 4.848-3.8l2.057-.073v-.294c0-1.4-.98-1.962-2.2-1.962a5.68 5.68 0 0 0-2.987.857l-.955-1.836a7.63 7.63 0 0 1 4.533-1.273c2.864 0 4.6 1.175 4.6 4.211v4.578a11.581 11.581 0 0 0 .22 3.061zm-.734-5.313l-1.666.049c-1.591.049-2.3.588-2.3 1.567 0 .955.662 1.616 1.886 1.616a3.055 3.055 0 0 0 2.082-.735z" class="cls-3" data-name="Tracé 6" transform="translate(-1574.755 -782.947)"/>
            <path id="Tracé_7" d="M1878.438 773.07a2.344 2.344 0 0 1-2.668-2.547V755.49h2.938v13.733c0 .857.171 1.2.784 1.2a3.651 3.651 0 0 0 .857-.122l.367 2.179a4.625 4.625 0 0 1-2.278.59z" class="cls-3" data-name="Tracé 7" transform="translate(-1748.871 -707.38)"/>
        </g>
    </g>
</svg>
